/* XPM */
static char *_841ff5427814966db7ddbd52eaedb6aSqMAo4mnGMtouZGb[] = {
/* columns rows colors chars-per-pixel */
"55 55 217 2 ",
"   c None",
".  c #050502",
"X  c #0B0505",
"o  c #0C0906",
"O  c #0D0C0C",
"+  c #06080B",
"@  c #1A0903",
"#  c #110C0C",
"$  c #1A0C09",
"%  c #140B07",
"&  c #0F100E",
"*  c #11110E",
"=  c #1C110D",
"-  c #070A15",
";  c #0A0C14",
":  c #0C0E19",
">  c #0E111D",
",  c #0F1014",
"<  c #131312",
"1  c #1A1413",
"2  c #1B1A16",
"3  c #13131C",
"4  c #1A171B",
"5  c #1D1A1B",
"6  c #240905",
"7  c #290B06",
"8  c #340B06",
"9  c #25130D",
"0  c #2A150D",
"q  c #301009",
"w  c #241A14",
"e  c #2C1A13",
"r  c #241C1C",
"t  c #2B1D1A",
"y  c #231612",
"u  c #351D12",
"i  c #391D13",
"p  c #391E1F",
"a  c #24211D",
"s  c #2A221E",
"d  c #2F281F",
"f  c #3C2115",
"g  c #372119",
"h  c #3D251B",
"j  c #332516",
"k  c #0F1423",
"l  c #121523",
"z  c #151826",
"x  c #1C1C24",
"c  c #121628",
"v  c #14192B",
"b  c #1A1C2B",
"n  c #171E32",
"m  c #191F32",
"M  c #231E23",
"N  c #271C27",
"B  c #321E23",
"V  c #1D212D",
"C  c #1B2134",
"Z  c #1C233A",
"A  c #172034",
"S  c #222122",
"D  c #2C2424",
"F  c #24232C",
"G  c #28242A",
"H  c #2D2A2E",
"J  c #282827",
"K  c #312A27",
"L  c #3C2A23",
"P  c #342C2D",
"I  c #3A2B2A",
"U  c #352622",
"Y  c #3C352B",
"T  c #242635",
"R  c #2B2A34",
"E  c #20253B",
"W  c #292B3B",
"Q  c #25283B",
"!  c #332F33",
"~  c #2E303D",
"^  c #33333B",
"/  c #3D3A38",
"(  c #393533",
")  c #570C08",
"_  c #4B150C",
"`  c #4A180E",
"'  c #45130A",
"]  c #56190E",
"[  c #441C14",
"{  c #411B18",
"}  c #490C06",
"|  c #650A06",
" . c #432416",
".. c #42251A",
"X. c #46291B",
"o. c #4B2C1C",
"O. c #4B2617",
"+. c #512D1C",
"@. c #5F2313",
"#. c #52301E",
"$. c #5A331E",
"%. c #632B17",
"&. c #702D18",
"*. c #472E25",
"=. c #4C3323",
"-. c #483828",
";. c #543323",
":. c #5C3522",
">. c #5C3B2B",
",. c #553626",
"<. c #443635",
"1. c #493F3C",
"2. c #453D36",
"3. c #563D35",
"4. c #633523",
"5. c #643A23",
"6. c #6A3D26",
"7. c #633D29",
"8. c #683925",
"9. c #723824",
"0. c #58471F",
"q. c #74491C",
"w. c #6F631F",
"e. c #7A6012",
"r. c #484429",
"t. c #564425",
"y. c #4C453D",
"u. c #444037",
"i. c #59453B",
"p. c #595336",
"a. c #5F5428",
"s. c #6D4225",
"d. c #6C422C",
"f. c #64412A",
"g. c #73432B",
"h. c #7B492D",
"j. c #75482E",
"k. c #6B5A26",
"l. c #6A4532",
"z. c #6B4B3E",
"x. c #674739",
"c. c #7C4C32",
"v. c #774931",
"b. c #7E543C",
"n. c #7A5237",
"m. c #706527",
"M. c #7F6A23",
"N. c #6F6938",
"B. c #232A43",
"V. c #242E4B",
"C. c #292D45",
"Z. c #29314B",
"A. c #363A45",
"S. c #34384B",
"D. c #393945",
"F. c #2B3554",
"G. c #2E3A5C",
"H. c #363C53",
"J. c #383E57",
"K. c #323E62",
"L. c #364369",
"P. c #3B4A76",
"I. c #4D4644",
"U. c #48464C",
"Y. c #594E42",
"T. c #534A47",
"R. c #5A5349",
"E. c #4C4F5A",
"W. c #4F5057",
"Q. c #5B5557",
"!. c #654C43",
"~. c #71594F",
"^. c #77594E",
"/. c #685C5A",
"(. c #67554F",
"). c #79635A",
"_. c #444B68",
"`. c #5A5C6E",
"'. c #6A5F60",
"]. c #665E66",
"[. c #6D656A",
"{. c #746461",
"}. c #7D6E6C",
"|. c #766A67",
" X c #7B6F71",
".X c #7B7277",
"XX c #844E33",
"oX c #855235",
"OX c #845439",
"+X c #8B5A3C",
"@X c #8A573B",
"#X c #915D3E",
"$X c #806B22",
"%X c #837424",
"&X c #8C5D40",
"*X c #925F40",
"=X c #936242",
"-X c #9A6544",
";X c #9E6C4A",
":X c #9B6947",
">X c #A16C49",
",X c #A06A47",
"<X c #A87854",
"1X c #857776",
"2X c #B29C1D",
"3X c #B59E24",
"4X c #B1845F",
"5X c #B59843",
"6X c #92827F",
"7X c #867D81",
"8X c #8D8283",
"9X c #898389",
"0X c #988A88",
"qX c #9F9595",
"wX c #A0999C",
"eX c #A8958F",
"rX c #A19BA0",
/* pixels */
"                                                                                                              ",
"                                                                                                              ",
"                                                                                                              ",
"                                          X.....                                                              ",
"                                          h  .f h                                                             ",
"                                            f f e                                                             ",
"                                    X.=.    f i 9       OX                                                    ",
"                                    ;.:.,.  ..i 9     h.j.                                                    ",
"                                      o.X.h f i  .;.d.8.                                                      ",
"                                      9 ) )  .o.[ ) ] O.                                                      ",
"                                    e 0 } | ` i ' ) @.h.7.                                                    ",
"                                    u  .$.oX+X@Xb.;.:.oX:.                                                    ",
"                                    y f j.;X4X4X;Xn...:.X.                                                    ",
"                                  3 3 o.v.v.<X<Xj.=X=. .t b x                                                 ",
"                            4 > 3 5 < 7.OX:.-X:X6.<Xl.i r M 3 x ! P U G                                       ",
"                        M D K l z P w g.=XOX-X>X#X<Xv.0 1 v c ! '. X{.1.s J                                   ",
"                      x D D M 3 c z G x.f.d.v.n.d.b.z.g b v c l C C.I.2.Y 2.-.                                ",
"                    x 3 r K R v v k T |.t 6 0 0 @ I }.*.C v b R E A.r.r.y.y.,.*.                              ",
"                  x C T P D.F.m v n `.8Xe 7 6 7 7 u 7XR.b b a.$X^ D.p.i.T.U.u.Y                               ",
"                  z C T ~ H.G.n v Z .X1X9 q q 8 8 9  X[.v V M.5XE.A.p.Y.U.L.J.^ C                             ",
"                  c A B.B.Q B.T W T 7X0XL [ O.` ' i 1X9XQ A A.`.L.J.I.y.H.F.F.Z.T                             ",
"                3 v A C.C.^ [. X].U.9XwXx.&.%.@.@.4.8XrXH.A V.P.L.Z.W S.K.F.F.S.K                             ",
"                v c ! y.<.|.8X( < R.6X{.!.9.4.,.i.Q./.8XS.Z Z.P.K.B.m K._.W.U./ a 4                           ",
"              v n 3 i.L L qX8XI.P {.!.,./.z.^.z.~.~.l.3.E A F.G.B.n E _.Q.R.y.^ C >                           ",
"            F V.Z 1 |.1.s eX0X/./.}.D.L =.,.l.6.7.>.*.F A n Z B.Z v R T.T./ W B.Z l                           ",
"            l Z b = 1X'.s 0X6XK r Y.u.b Y w.d -.k.-.-.p.r.v Z B.Z c Q ( R G R R ^ H                           ",
"            w 1 # $ {.<.$ |.|.# . j m.=.k.2Xk.e.3XN.m.%Xm.v n Z A l m T R H D D I D                           ",
"            i i = % ).y.@ h (.T.( H r.u.t.t.s.q.g.f.;.0.( z Z B.v   l b S 5 1 1 y w                           ",
"          #.+.f e j =.g @ u -.    b n n N [ ` ` ` _ _ _ B F B.V.z     M r t u i u j                           ",
"          5.g.+.6.OXoXc.;.          C n N B G i p { { ..*.^ G C         :.j.=XoX5.$.o.                        ",
"          5.s.6.@X-X&Xb.            O ; 3 b Z R C.C.R H M < O         ,.8.d.#X#Xh.5.+.                        ",
"          $.5.4.g.:.1.^             ; ; - : v m Z A b l : : : 3     c.v.g.:.5.h.XX6.o.                        ",
"          +.$.$.5.>.i.<.          3 c > > ; : > c c : : l c l > < l.+X>X<X*Xg.h.c.$.o.                        ",
"            +.4.oX-XoXj.        ; > l l l > ; ; > > ; > v v l 3 : 5 OX&X;X:XoX6.6.;.                          ",
"                  3.~.!.        k v v v c l > - ; - : c v c l l > O     c.d.g.6.,.                            ",
"                  I..X/.      l v Z Z A n v c ; + + : l c c l > > ;     +X+XXXg.                              ",
"                              ; c v n A C n c ; O O ; k c c : 3 4 + h +X-X+X6.                                ",
"                              : c v A C C n > ,     ; ; x -.5 t 5.f r                                         ",
"                              : l v n n C v ;         ; >.;Xn.=.s.f.G                                         ",
"                            O O 5 l v v c >           t c.,X>X+X5.:.I                                         ",
"                            4 ..,.4 G I l             = :.c.-XOX+.i                                           ",
"                            P g.>.r x.b.t             X i 6.g.6.f o O                                         ",
"                              j.,.>.c.XXX.            # % u i 0 X . o                                         ",
"                            = f o.:.#.s.f X             X o o o X X                                           ",
"                            o = h  . .o.e X               O * . o                                             ",
"                              # 9 y 9 e =                 < 1 . . O                                           ",
"                              & * O O < <                 2 2 o . .                                           ",
"                                O * O 2                   5 s w o .                                           ",
"                                * < 2 4                     5 a *                                             ",
"                                O # < O                                                                       ",
"                              < * S 5 O                                                                       ",
"                                                                                                              ",
"                                                                                                              ",
"                                                                                                              ",
"                                                                                                              "
};
