/* XPM */
static char *alien[] = {
/* columns rows colors chars-per-pixel */
"64 63 90 1 ",
"  c #0D0D0A",
". c #161511",
"X c #181712",
"o c #1C1B14",
"O c #201F16",
"+ c #211F18",
"@ c #212017",
"# c #25241A",
"$ c #29261C",
"% c #2C2B1E",
"& c #272520",
"* c #2A2721",
"= c #2E2C21",
"- c #312E22",
"; c #332E29",
": c #343324",
"> c #383726",
", c #3A3927",
"< c #363229",
"1 c #3A352B",
"2 c #3D3B29",
"3 c #3D3632",
"4 c #3F3B32",
"5 c #413E2C",
"6 c #403731",
"7 c #443C33",
"8 c #483E37",
"9 c #453D38",
"0 c #493F38",
"q c #44432E",
"w c #48462F",
"e c #464331",
"r c #494533",
"t c #4C4B33",
"y c #47403C",
"u c #4C433A",
"i c #4F4939",
"p c #504E35",
"a c #51463E",
"s c #534D3B",
"d c #525136",
"f c #565339",
"g c #59563B",
"h c #5C5A3C",
"j c #605E3F",
"k c #61613F",
"l c #4C4541",
"z c #4E4A42",
"x c #524641",
"c c #544B42",
"v c #594E44",
"b c #544D4A",
"n c #594E48",
"m c #575141",
"M c #5A5341",
"N c #5E5A41",
"B c #5C524B",
"V c #5C5651",
"C c #5E5853",
"Z c #605745",
"A c #625C43",
"S c #6D5F47",
"D c #61534C",
"F c #655C49",
"G c #635C55",
"H c #645E58",
"J c #646241",
"K c #696644",
"L c #666841",
"P c #6C6B46",
"I c #676049",
"U c #6C634D",
"Y c #72664A",
"T c #716E49",
"R c #786F4D",
"E c #6D7146",
"W c #74734B",
"Q c #78744D",
"! c #7A784E",
"~ c #656056",
"^ c #6F6650",
"/ c #666059",
"( c #6B645B",
") c #6E685E",
"_ c #746A53",
"` c #7B6F59",
"' c #7D7B50",
"] c #7C7158",
"[ c #827454",
"{ c #897A58",
/* pixels */
"tgdKPkkPkkkQ[PkkY{QLPLASYJhkEKY[QKhghtwdpwtptdAq%=-,5%#->-%>5$%s",
"&,qtPhhgpwwdwqq2wKht2>:2t22ww,rhddq5q2>tq>:>tgPd,2qqdt5wdjjkj5qH",
"*2dghdddtppq25,qst5::,qwtwwwqwwkhqtqqqqwwq5:->tde2522tpttgdjhhwG",
";5hhdtdtddwww55dsw>=,ttqww2w,t>kj:::%:252wtq:=qtse5qtwtftdttdNtD",
";sddhdthdttt5tspde5rpwqww2>,wddEk2,,%-2qwqqtt55pppp8wptphdthfdh(",
";qthdwhdtdtqrdfsp5rgd5ttq>:2>:qkgq%%::-qwpqtMp5rfsgrqqdtphtthdw~",
";<djtdfwpd5rpAAg5efjrtp5,:,>##%gtq$$:2->erpegMt5sjAfr5pgwtfthh2V",
"<efthpqrpqwsssgewsNsrp55:,2-%%:t,t%-%:,-27ttthguqfssspqptqrhtftH",
"6tphPttgqwsgffs5sjsrp5q<,2%-:#w5-t==-$>q-55ptpZfeegdffrqfdwkKpf~",
"32tJdtgp5ssssg6avgrs852:q%-5%,g$@wq%5:-5,:55prsMs6sgaMsrwhtthf5V",
"6,dhtdd7rssrsw8svuip55-5,%55->d>-5:%5w:,q<25rsrcsa6susfa7ihtfh2C",
"yrhtphq8sMuip6asres25>55:25>6%%ww>%>:555we-52ra8sa5esesMr2ffwgp~",
"udpqdp60caeseiZF6a5;5:5>:tw5<666,15<58p55q><1<s7cUsesuysu4edqwf)",
"ap>rhq8cc8sc9aAv8a66:55:qt5:678r8a651:er5qq:61u0uFv8uM8abu2ff>w)",
"u>>fd6xc08f79us85=-6:w5:tw5:=8aasa81=58pq>t,13$17au86sa8cxyeN2>C",
"u>eh58001us8sfue8+=65w>5p5::%6aaaa6--:,pt2tt2<+1iesMets660r2fp>V",
"l7fp2rsJiMruI^7mt*<2tw:5ft5-$608986**2wdp>2pq1*2N7N^v7fcjNe7qhqG",
"ctf25uZJhN7B^M7F514etq:tf5,-=68xD87;*,2tf2qtt17<NauYFyshNAsy<dpG",
"ceq=essurZunm>u_Ma1tw>:hd55:*68vDa2--5qwL2-2t2ec^Z;iBuMdesmi:>tC",
"cp:#5se11fas4;i`_r>tq:>h5$=:**6vD8*#--#>hw-2ee>I]Z<<iimw>2it=$t/",
"sq%%<5>-5u2e74iId>5w,qtw%O=-=-=69-;=%-@#5t5,qt:eFM74r17u->,>-%2(",
"aq---#->e51;7zcc:%wwtdw,%#$,-16<<16=>:#%>wdwft:=umcy1<5e,<#%%>qG",
"cfq-5:#;q<yrilnBe4t2tw,>,:$=567ss815>#%,,qddqtq5cVxlue152*%>:2g)",
"as,-:r-%w51iuxDGFddth,::#o%#55,58<5w%%@@%:5hpftZIVnui51u<$2>%>f)",
"8q-%,q,:,2:,y9<<imteLq>#O.#,,2,:5-55:-.X#-2kdwfs1;3l4:,q:>q>:%q~",
"82>>>2wq:qer7=*#>twqdq>#@ @q->:>w-,=5: X%:wpwwtq#%*1iqw:>t2:::2~",
"er5,22ww:>2714e1,ptwqqt%%@:q%:-%:::=,q#%%2d2wqdq<6714,,:2w22>qt/",
"apwq::qde,2<3ci2rp,52wPd>%:%@#@$%#+$#:%-qKh>w>tt5rM7;222pt>:wtd(",
"apt,:22ww>:$2stteq>25qhEgpd>w2>q22:t,wddPPwqq:w2ptpe%::2t2,>:td/",
"asw:--,wf:,>2epf:>phhh>wgE!wkhdhdjtWwk!kd:thhdq%uge7,2:td2:-:2d)",
"aqw>%,qtd,>wqwfd>2twdk-2kEk,kwwkjh,k5dkEt%dkwww:whpqw2:ttq2:-qwz",
"apq2%>qwht%-2pdt2w2thd%2pft:dqqgdd-d,5hgw%qhd2w5wdd5:%,kpq,%>qt4",
"tkq%:22,hd%%2wqw,wqwtq%,q>,-5%:,:,%2:>>2q%,tpqw,qwqq:%qL2,2:%,hq",
"ww:%%%##qd2:qtqq,t2wqq,q5%%%$##--$##%%%>w,q2w,w2,qtw,>wt%@%:%%2>",
"q-,:%:@o-wtqqtw2-22wwhd2-:ww:%#$%##$>2:%>whpw2w:,wtw,wp,#o%%%,:%",
"rqw:,#@:,qdddhdw%22q2q,,5-#OO#$$%@Oo%##,,:qqw,2%,ddhpgw,,#@:>qw%",
"yt2q,@%qdfwdhdht,qw,dkdw$O@oOO.O@.X@o@@%,dhd22w:qddhhwdgw>@%q2w>",
"y>,q2#>pgkddkkdw2w,:wwq%$:%OOXX=:@X@@@:%@,qt2:wqwdhkhthhdq#:q2>%",
"r->2:@,hwqwfkkhp2>,,w,2,t2%-OO%5q:OX:%:w2:2q2>::whkkdtqqhw#%2q%%",
"y>:2%#:p2%:qd!kd2%,qt2w::#%%O$565q:@%%#%>2wtw2:,wk!hw,%:d,%%25:&",
"y2:q>%#,2%%,wkkhw,,>:,w%:%-%=-%65=-=*-=:-555%,:qtLEd2:%:q%#,q2,%",
"8,>q2:@%w%:q2qdpw%%>%>:%6->O16$65=<6+=::--:=::%2tdq,w,:2>@:2t,,&",
"u<:>q:#:q%%,,%:,-@%>:%@#%O$%6%*78;$1:$$$%#%=::@%,:%:q:%,,#:2w::&",
"8=,:,:%@22,w,:O@@o#>%:,>$O+67$*;1;+1t$O$-q:%>$oO#@%,q2:2%#:,22%&",
"e%>>>>%#:w%,2,#o.oO%>:,,%$O--O-%*-O$6O#$:2::-oo#=%:,2%22%%:q,,%&",
"y#:>>2-$#w>%,q:@o%#@,%:>$OOXO=-%=--OXXO@-:%:%O%$::q,,%q:@=2q,,&@",
"u=:2>q>%@:,%%,,%@,:#::%:$OO+=6-#+$5>#X.O%%$,%%2%#,q%#:2%#,t2,:&&",
"nNtq>2t2>qw%%:tw%qq%w,%:%OOO%6%OO$,-$XX#%$%t:,w:,d2%%qw,2dp:qpd,",
"nhhq%,wdkkLp:dTd:5twgw%:-OXX#%#OOO%%o.o#:%,htpw:wLk>qLkkkdq::gg5",
"vrg>#2wwddgq2EEpwjkttd,:,%oXO#@##Ooo.X@>,:wpwkkgwL!t2dfdtwq%%dw:",
"cedp%>wdfkf2wkptjEkjjgjqp,#O,t:$#O@OXO%w2djgjkkkpwkd,tkhft,%5gw=",
"btdh5%:5tfdwpgwpkjk!jgkjd::#%,%OOo@O@%:qwghg[kghhqpgqtdtq>%:dft<",
"ahfdp2,2,,:-qwtKkhhkgtgj22:%::#%%%%:%%2,pw2djggjEdww:::,2,,qdtk<",
"cQhwqfkhfdq,:-5twgtdj,,d2:-%:$:dd2%%:%:>tp>djtgtqw:::2thhkhqqdWe",
"sPAwqptwwptfq-:=>gggp>-tp2%%,$>222%::%,:ph,wjdj5:::2ddttwwdw2fE4",
"85etd2%$%,-wwq-qwqpjg,%ph22qw>>qp,,2w,2,t2:pkdqwq:,qt:::&&,pdt5&",
"5:thw:@:qw:qhddkw:>dkq5kk5:%,p2~Retq=*>,dw,jk5%qhgthp:5w:#%2df,#",
"8jkdp%%:wgtgdthdq:%qkhjj5-%-e52C_r>r>%%>gkgkd%%,whddhddd,:%2hhL,",
"8jhgq:2%-kWh2qdkkt>wkgkPdtq,::4ey2<:,5wdkkgkd:5jLhw2pLLw#:,,ggk2",
"6pt::qd:qkWkqqkkk52tdkkkt>*>224bnl1>>%-wkkkgdq5dPkw2dL!d:wt::qt:",
"65:-::ddkk'kd,:2>:wthWLq%@@#2hwzmwq%ooO#,gWkpw,:2>:wkE'Ldf,::=5=",
"-:-5-o%pjghd2-%$%wwwddq:%%#o%dptqwd:oo%%%2ddtqp:#%->thhdf,@#2>:&",
"%--q:%%222:,-,%:%q>>:,>%%>#%-22q2>,:%$::%%:%:%,:$%%-:%::>%&=q>%#"
};
