/* XPM */
static char *alien_wall[] = {
/* columns rows colors chars-per-pixel */
"64 51 94 2 ",
"   c #060605",
".  c #080807",
"X  c #0D0C0B",
"o  c #100F0D",
"O  c #12120E",
"+  c #151511",
"@  c #181712",
"#  c #1C1B14",
"$  c #1E1C18",
"%  c #201F17",
"&  c #211F1A",
"*  c #212017",
"=  c #25231A",
"-  c #28261D",
";  c #2B2A1E",
":  c #262320",
">  c #2B2623",
",  c #2E2B23",
"<  c #2E2A28",
"1  c #312D24",
"2  c #342D2B",
"3  c #343224",
"4  c #383726",
"5  c #3A3827",
"6  c #36312E",
"7  c #39332D",
"8  c #3D3B2A",
"9  c #342F30",
"0  c #363131",
"q  c #3A3433",
"w  c #3D3835",
"e  c #3B3739",
"r  c #3D3939",
"t  c #403E2C",
"y  c #433B35",
"u  c #483E37",
"i  c #453D3A",
"p  c #493F3A",
"a  c #44422D",
"s  c #48462F",
"d  c #454231",
"f  c #494534",
"g  c #4C4A32",
"h  c #46403C",
"j  c #4B423C",
"k  c #4C483D",
"l  c #504E35",
"z  c #51473F",
"x  c #544D3D",
"c  c #535237",
"v  c #56523C",
"b  c #5A563D",
"n  c #5D593E",
"m  c #605E3F",
"M  c #464241",
"N  c #4C4543",
"B  c #4D4749",
"V  c #4E4849",
"C  c #514741",
"Z  c #544B43",
"A  c #594E45",
"S  c #544C4A",
"D  c #5A4E49",
"F  c #5C5344",
"G  c #5F5A42",
"H  c #57514F",
"J  c #5D524B",
"K  c #565050",
"L  c #5D5453",
"P  c #5E5658",
"I  c #605747",
"U  c #615B45",
"Y  c #61554B",
"T  c #635A4A",
"R  c #685F4C",
"E  c #615653",
"W  c #635955",
"Q  c #655B5A",
"!  c #695E5D",
"~  c #656144",
"^  c #686347",
"/  c #6C654C",
"(  c #6F6451",
")  c #716454",
"_  c #796D59",
"`  c #7C7457",
"'  c #7D7359",
"]  c #675E60",
"[  c #6C6262",
"{  c #82765F",
"}  c #847A5E",
"|  c #827362",
" . c #8A7D63",
".. c #8D7E69",
/* pixels */
"- ; - 1 - = - 5 5 # ; * @ # @ @ - 1 7 3 1 ; , 2 7 7 3 1 - 3 = > ; a 7 7 6 6 6 2 9 y < 2 9 2 2 2 2 9 y p y 9 y i i i 2 y y y y p ",
", # + # ; ; - ; # @ * = - * O . @ , 1 % X O # , t 8 - = - ; , - ; , 2 7 6 6 7 2 9 9 2 y 0 9 2 0 y 9 y p p p i p p i i y i u p p ",
"@ + = ; % % % % o @ @ # 3 = .   X + + o o X + = , > : = 3 - = = = > 7 q 2 y y > 9 y 9 y y 9 2 0 q q q C p p M p M C C i p i u p ",
"- = = ; ; * = O X o O * 5 4 * X X # = & O X @ = , , - > 6 1 , 6 ; 2 q 7 7 7 7 7 9 9 y 9 2 9 9 0 0 9 y S B C N M N B B p p p p N ",
"= % % ; = 3 % . # O @ - % = ; 3 # $ ; = X $ > = - = % q H q : 3 < 9 2 y q q 9 9 y 9 9 y y 2 2 < q 9 9 S S B N M C B Z C p p p u ",
"3 5 = % * O O % 3 O O ; ; ; - = - , < = + = 2 2 , > 5 d ) B # : 2 9 9 9 q 9 2 < 9 9 9 9 2 2 2 y q 9 9 S S B N N N B D C S N p p ",
"- ; ; # # % # % % % @ @ % % O O * 3 6 9 : # - 8 7 3 - 5 ] B = < 2 2 2 0 q 7 9 > < 9 9 2 < 2 < 2 9 q 9 B C S C C B C C C D C C p ",
"= - * = X O 3 s 3 O O O ; 3 % % - 3 f 0 1 > = 3 4 > - h P B : > < y 2 7 9 9 2 < 2 y 9 2 2 2 2 2 9 9 q S D C C p C C A C C p p p ",
"3 * = - @ ; 3 * * ; ; = # * 3 = 1 5 b 8 ; 4 1 2 > 6 y E Q N > < 2 9 q 9 0 2 2 2 0 0 0 0 y < > 2 y 2 9 C C p p p C C p p p p C p ",
"# @ - # * = O O O * = # X O ; 5 ; @ ; # ; 5 - 2 1 1 y J A p < 1 9 q 2 y 0 1 9 2 2 2 0 6 2 < : < 9 < y D J E A D W J A A A Y E Y ",
"= @ @ % = = - * O % % O + * # # # , ; + * @ o = 3 4 3 t y y < < 2 q 9 7 q 7 0 6 2 2 0 6 2 > : 2 9 y 2 C D E C z E E D A C J D D ",
"3 + + = = ; ; ; # * a a a 5 + * g 3 = # # O * - ; > 1 3 - = - 3 7 9 q q 7 a y 6 2 2 9 6 y < > 2 9 2 y D D E Y A Y D D D A A A C ",
"3 @ @ ; % @ = 5 a % ; 5 ; # ; 5 g , = $ # = = < 1 1 x f 3 ; ; ; & 2 1 7 3 3 8 8 2 2 0 2 6 2 < 7 y 9 y S Y Y D A D A Y Y A A A Y ",
"# * + = ; 3 3 3 3 3 * # = 3 3 ; 8 8 1 2 1 - 2 q q 1 5 8 - 4 3 @ o % 1 1 - < : - - > 0 2 2 2 < y 9 y y D E Y D Y D D A A A A Y Y ",
"@ = % + 3 5 # O X # ; 3 ; # O + = a t 8 - = 0 w e 2 1 i 1 , = + X o @ - 2 r 0 < & - 2 2 < 2 2 2 y 9 e B A A A A J A D Y F I J D ",
"* @ * % # # = * + X O O + # * ; - # # = $ 2 q q e 0 j W S r $ 3 3 - 1 t r w w 0 > - - > > 2 < 7 9 y e S A C A A A Y Y A b Y D Z ",
"; = % O O # 3 , > @ # * - ; - , = , 3 - > 2 q 6 > 6 j J L S = , g c 8 0 e q y y y 2 : < 2 > < 9 e e e C A Y A b z A A Y I Y A x ",
"; ; 3 * . + ; 6 q < $ > 3 , 6 e 2 > 1 - , 2 6 , 3 6 4 8 8 r < , = > 1 q y y 2 7 y y 2 y 2 < < 9 y e e p A b n x b x x x n A A x ",
"3 % @ = % O = 6 e e 0 6 6 0 w r q 2 , 8 4 , 6 > 8 4 - - , , 1 6 , ; 1 2 9 9 > < 2 y < 2 2 > < q y e e C b b n b b A n n n n b A ",
"3 % X @ = = % = 6 r r q q q r e 0 3 8 3 - % 3 d 8 - 3 7 N q - , = , 1 3 7 > > 2 0 9 y y 2 > > 2 e 0 y D Y Y Y I Y Y Y R ( Y Y R ",
"5 5 = ; ; t ; # $ < e q q q w e 2 # # 3 s 3 = ; = = 5 4 N d - - < q 0 1 2 < y 9 y e 0 y 2 : < y q 0 7 D J Y Y Y E E D Y Y Y Y A ",
"@ ; a t ; g t @ @ % < 7 q q q 0 > # - - = 3 5 5 8 , : 5 a 8 > 2 q w q 0 9 9 2 y 0 q y 0 7 & < 2 9 0 y A Y Y T Y Y A D Y Y Y Y n ",
"O @ 5 5 O @ @ # ; ; = > < 6 2 1 # = 2 1 > : = 1 0 6 y w a 4 > 9 y 7 0 2 y 9 y 9 y e y q 7 > > 2 2 9 y D Y Y I I I Y Y n I Y Y m ",
"= # X O O O O > 6 , = = - ; ; * - 8 1 6 1 1 1 0 y q N S j q > 2 6 7 t 2 9 y y 9 2 q e q q 2 2 2 2 u u D Y R I I Y Y A A m R Y Y ",
"3 @ O ; * # > 0 q ; @ + * = @ @ 3 3 > = 3 3 6 q r 0 M L f 3 = 2 2 5 1 - 7 w w q q q q t 7 2 2 2 9 y y b I Y I Y Y Y A Y m ~ Y A ",
"# # ; 5 * : < 3 a = % * @ + O @ = = 0 3 8 5 3 0 w 7 e 7 ; * # < 2 t 1 < < q 0 r w q 2 8 1 1 2 6 7 7 y b I I U I T Y Y Y U ^ Y Y ",
"3 ; % = ; = = 3 ; @ = % & = @ O = 3 6 , # # = 6 8 5 3 - ; = @ * 3 3 7 q q q 6 w 8 1 - - - # < 6 y q y x F I I A A Y Y I m / Y Y ",
"# O + # - ; - % O @ % = = % O . o * * O = 3 = = , ; ; ; 3 ; - = - 1 y w y 7 f s = = & ; > - 2 0 y q y p z z Z C x A b x x x C A ",
"# % ; 3 * O % # X + O : 6 < 2 , # @ + @ 4 - = = = - ; ; ; 3 g t - 2 q r w 8 g 4 1 1 1 4 > 9 q q q y y C Y Y Y Y Y J J J Y W Y Y ",
"= % * ; ; 3 ; X O O @ ; 0 6 ; 3 5 ; = 3 3 5 % = , - ; ; 3 1 3 4 3 > 2 4 4 , 1 a 7 q 7 1 2 q q 9 q q y K W E Y W W P E L W W Y E ",
"= ; * ; % % O + ; O + ; 3 3 3 * * 3 ; ; t b 3 = = : 3 8 ; * a 3 * ; , - = < - 4 u t 1 : q q q q q q y K W P E E W L D E D Y E E ",
"3 5 ; # * # + * ; = O # = * # o @ = 5 ; = ; ; 4 2 3 3 3 3 # = ; & = : > 9 r 2 = - > > 7 q 6 9 q 9 q y B L P E Y J D D D J Y D Y ",
"% = = $ O O * 3 * # # + # ; % + * = 3 2 2 = = t t - - > 2 q : 2 2 0 q 6 q q q 2 9 q e q q 9 y 9 2 y y C I T J U n U T J U J P Y ",
", - = * O # t 5 3 * + @ = 3 ; = 3 5 c 8 9 2 > = 1 3 7 i D K > 2 2 0 0 2 6 q q 6 y e e y q 9 9 2 2 9 y A ~ U I U n U U n U Y P T ",
"- # - $ # ; % O O ; 3 > # @ ; 3 ; - s 3 2 8 1 2 6 3 e E W S < 6 0 7 0 2 9 q 7 2 0 y 9 y 0 9 9 0 < q q D U I U U G F F F I J L W ",
"# # * # * % # # X O % @ < , # 1 = @ = O = - + > 2 , i Q Q S < 2 2 2 2 2 9 0 7 2 0 9 y y 0 0 0 2 2 9 q Z F F I F F Y F J F T L J ",
"- + + % - ; 3 = @ & > < 0 7 , & ; 5 ; # # O O = 2 2 i ! Q B < 2 2 2 2 9 9 9 9 7 y 0 9 9 y 2 2 2 9 2 7 C Z A A z C S J S D J F x ",
"3 O + - - > : , 3 , 0 9 0 7 < 3 b 3 = % + * - 6 2 2 M Q P N < 9 2 9 2 0 q 6 9 q 9 9 y 9 9 2 < 9 9 y 7 p v x C S C S L S K S x l ",
"- # @ ; : 6 4 a g 8 < < 3 ; 3 5 s 7 0 > = 1 2 0 7 6 M Q Q B < 9 9 7 0 q 0 q q q 2 y 0 0 0 2 < 0 q 7 y D Y A A W P P P P P P Y J ",
"@ ; O # 4 t ; # + = , , 3 ; - @ 3 d w 8 3 - 0 w q 0 N ! Q B > 0 q q 0 y q q q 2 2 y 9 y 0 9 9 9 y 9 q B E L D E P E L L L L L L ",
"O # = + * ; + + O o @ = % + + % * ; 5 ; * < q q e 0 k [ ) V < 9 q y q 7 y q q < 9 y 9 q 0 0 0 y q q e Z H J Y L L L P P L K L P ",
"; % # # # # ; # . o O O # * ; ; = = # = > 0 q 6 6 7 M ! [ V > 2 9 9 2 < q q q < y y e y y 9 9 0 7 q e Z A F F S S S S H J F G F ",
"* = ; + . # ; . O @ # ; 3 ; # @ * 3 t ; 0 0 6 ; , 6 y k S B > 0 2 > & 2 q q y 2 9 y e y y 2 9 9 6 q q Z F A A F v G F F v b F Z ",
"3 ; ; ; O O % o % % + @ # - ; ; 5 ; @ 0 w 6 , - 5 3 1 , 7 r > < - - > 2 2 y 9 2 e e e e 9 y 9 2 2 q r Z Z S D A x b T J F c b Z ",
"; @ X # = + % @ @ = ; * = ; 4 4 * - 3 t ; = 3 ; 8 ; > w 1 ; 1 1 3 2 7 2 2 q 7 2 q e q y 9 9 2 y 1 q r z z z Z v F F F F G Z Z F ",
"5 ; + * = 3 * % X O - t 3 % = ; O = , 3 t = ; a 3 = 8 k u 7 a t 1 2 2 2 6 q 7 2 q q q y q 9 9 9 1 9 q C Z x x v Z F F F F F H K ",
"; 3 3 3 3 g 5 # X . X @ = ; * + . O $ 1 5 5 3 - , - 3 3 k i < < 2 2 > 2 9 9 7 9 q y 9 q 9 9 9 2 9 9 0 p j k k f Z S N k k k k M ",
"O * a s # 3 3 + = = O + ; # X O # * , , = = 3 5 3 , > t x y 1 9 2 t 7 2 2 9 9 q 9 q q 9 q 2 < 2 9 2 0 p j k k k f f h f f f f f ",
"+ + * * o X O * , ; = # O O % = % ; 1 1 , > > < > 2 y y 1 1 1 4 3 3 1 1 2 6 9 7 6 q q q q 2 & 2 9 2 6 Y ) ) ) ) / / ( / / / / / ",
"; % X + # @ # ; 9 , % * ; 3 = @ 3 t 1 1 1 2 2 2 2 2 M C 1 - ; - % t 3 - , 7 9 q 2 7 q q q 2 2 2 9 2 7 _ .. .} ....} } } } .. . .",
"3 @ % 5 * # = ; 6 , O + # # o # 1 - & & ; 1 1 2 < < y p 7 = # # % 1 & & & > 9 9 2 7 6 6 6 6 - 2 2 , 6 / ' ' | | { ` ` { } } } { "
};
