/* XPM */
static char *alien_puss[] = {
/* columns rows colors chars-per-pixel */
"64 64 106 2 ",
"   c #050504",
".  c #090807",
"X  c #0C0C0A",
"o  c #110F0C",
"O  c #13120E",
"+  c #1A130F",
"@  c #161410",
"#  c #191611",
"$  c #1C1B14",
"%  c #211E15",
"&  c #291E16",
"*  c #232117",
"=  c #282117",
"-  c #252419",
";  c #29261B",
":  c #27281C",
">  c #2C2A1D",
",  c #32251A",
"<  c #38261B",
"1  c #322C1E",
"2  c #3D2A1E",
"3  c #262422",
"4  c #282524",
"5  c #2F2E20",
"6  c #312E21",
"7  c #3A2D24",
"8  c #302C2C",
"9  c #343323",
"0  c #393625",
"q  c #3A3927",
"w  c #36312B",
"e  c #3B352A",
"r  c #3D3C29",
"t  c #373231",
"y  c #3A3532",
"u  c #3E3935",
"i  c #412C1F",
"p  c #422E21",
"a  c #443525",
"s  c #4B3525",
"d  c #453827",
"f  c #4C3927",
"g  c #423E2B",
"h  c #4B3D2A",
"j  c #523726",
"k  c #503826",
"l  c #593827",
"z  c #523D2A",
"x  c #5C3E2B",
"c  c #433D34",
"v  c #433F39",
"b  c #44422D",
"n  c #4A442E",
"m  c #53442E",
"M  c #5B422D",
"N  c #464432",
"B  c #494631",
"V  c #4C4B32",
"C  c #454239",
"Z  c #4C463A",
"A  c #4C483D",
"S  c #524632",
"D  c #5A4633",
"F  c #524D34",
"G  c #5B4C33",
"H  c #51473C",
"J  c #534E3B",
"K  c #5A4B3C",
"L  c #525136",
"P  c #585137",
"I  c #565539",
"U  c #595639",
"Y  c #5C5A3C",
"T  c #615438",
"R  c #615E3E",
"E  c #61603E",
"W  c #4B4940",
"Q  c #524E43",
"!  c #565246",
"~  c #5E5042",
"^  c #595549",
"/  c #5E5A4C",
"(  c #645241",
")  c #685542",
"_  c #615F40",
"`  c #625C4C",
"'  c #685A4E",
"]  c #6D5E53",
"[  c #636141",
"{  c #686542",
"}  c #6B6A46",
"|  c #6E6C48",
" . c #786447",
".. c #706843",
"X. c #75724C",
"o. c #79764D",
"O. c #6F6055",
"+. c #736457",
"@. c #74655A",
"#. c #78675C",
"$. c #77685C",
"%. c #7B695E",
"&. c #7E6C61",
"*. c #836D4D",
"=. c #8C765A",
"-. c #8D785D",
/* pixels */
"u $ O ; d S D v S H D S K K ( K V r V ^ R ) ~ ! ~ H H Z C N e - * > - $ $ * > * * - : : : : : : : : : : 3 3 4 3 3 4 4 4 4 4 4 3 ",
"C ; = 6 0 q d e e p 0 p 0 e r g q q q r 0 q 9 9 0 0 9 > > : > - % - - - 3 - - * * * : : : > > > > 5 > 9 7 7 7 7 8 7 7 0 e w 7 y ",
"N 0 h m U L h d g f f z d b B r q b V V b g 9 q b b 0 0 5 > : % * * 5 6 q q q r r q q r b b V r 9 b b b h z s f d d h F G m g Q ",
"9 9 B D m F n b f m S n g b r r r V V V b r g b b q r q 5 : - ; - - - 5 q r r r b b r q B V V V b q b V b S m n g b B F D F N Q ",
"q r L L B b h j m P n d b q b V L L L b q V V b r b r r > > 5 9 9 9 9 5 5 r b b b B V V q b V I L N r r b b B U z j g b B I L ! ",
"F r V L U L S z F V b d e g V L Y Y r q V V b B B r 9 r q q r q q q r q e q 9 b V b b V b r B I I L V r g n n L F z F I I V B ! ",
"*.b N U Y L L z n V n a B V L I I b q b b b B V N b q q r b q 5 5 9 r b r q r b b V b b V b b b I I L B b d n V m z I L Y I r W ",
"-.r B Y L L I g V U b b V Y Y Y V q V I b b L b b r b r q b 5 - # 5 q b 9 r b r b B L r V V B r L I E I V g n U n h I L I Y b A ",
"$.N L L F V b b P B b I U I I L b b V I B V V b q r b r q 9 - @ O $ 5 q r b r q r b V V B I L V b L U U U V b V L d B L V L V ! ",
"@.L V U X.P g m n b V I L L L b F V I V V V b q 9 r b V r 3 @ O O O * 9 r N b r 9 r b V V L E U B b I P L F V b n n b U } V V / ",
"$.Z B E U B F n a B I U I U b b U Y F V V b r 9 b b N r 9 $ @ $ $ # @ 3 q b B r b 9 b r V V L Y U b n P L S m B a m L B E Y B ^ ",
"@.N V Y V L P d b L U V F F d V P V B L b b 9 b B b b 9 : @ @ $ * $ # $ 9 q b b V r q b b L B V U n p k m n m F g f Y L V Y B A ",
"@.Z L F h L n d F Y P V L a a j b b F n b q q L V N q 5 $ $ $ $ $ * $ @ - 9 q B V L 9 r b V L b m f p p j d j m V a V F g F V ! ",
"@.Z n d j h 0 h I I b F n g M M b V V 5 r > 9 L E V 9 * $ - - * * $ * * $ 3 q L E V 5 9 r 9 V b f M M b z n g M F h 0 z s h n ^ ",
"@.J B n F s d V I B n F g L Y P b L r q r > > N E N q $ @ $ * - : * * $ $ - r V Y r > > r q b L n E Y L n G n f z n 2 s V B B [ ",
"@.L B L I b V I L r L b b L U B b q 9 b 9 r q V V r : @ @ * $ $ - $ * $ # $ 9 b V V q q 9 b 9 q b L Y F b V L g k j a a I V N O.",
"@.N b Y B b F h 0 r U b 9 0 B b B % * r q b b I b 9 @ @ : 9 9 * * * 9 9 - @ $ b n I b b q r $ ; n V F U B N U g a h f 2 n U b A ",
"@.g B G d V 0 < 2 m L b $ 9 b V n = 1 q n B U L b - @ * 9 B r * - - b b 5 $ @ 5 b I L V n q ; = F B L o.Y b L n a i a d 0 P b C ",
"$.g V h n B o % b P V q O r b U d , 0 q V V Y B r % * * : r r * * : b q - $ $ * b V U V F q q ; V U b } [ V n U h % # F d m b N ",
"@.C n s n U > d m I L r : B B E q 9 0 b V V I b 5 : $ $ * - q 5 - > 9 * $ $ $ - q n U V V r q 5 b E b E } L n U z q 9 Y g d b W ",
"#.V n 2 s G T F I B b I V b B I b q 5 V b I V b 5 5 # 5 r * > 5 : 5 : : r > # > 9 b L V V V 9 q n U b V U F b B G F T G a p n ! ",
"#.F n a f l M F E r q I I q r r b q q V b b b q > ; $ r b > > 5 - 9 : > B 0 $ : : b V V r V 9 q r B b r I L b b Y G x l s d n / ",
"#.J b B S M G Y Y b L [ | r L B V r r V b V b > > ; # e q ; 0 > * 9 9 : r 9 $ : * q b V r V q b L V V b } E L b Y U M M P V b / ",
"#.I r V F n G } Y b I } [ b V b L q b b b I r * > > * e q ; > - > - > > q 9 % 5 : 5 b U b V r q L b L b E E L r I Y m m L b 0 ` ",
"#.F q B V r n R B b U } L b B r B 9 b b L b b > > : * r q > 9 > 5 - 5 > r q * > : : 9 b V b V 9 V r L r L { V h V Y h f B r 0 Q ",
"#.N q N L L V I r n Y [ b V b b b q L V E b b > 9 : 1 F V 5 9 > q > 5 9 V B : > 5 - q L E V V 9 b r V B B Y L h S R S M z r 0 c ",
"@.N q B V U Y E q r L L q L b b b b I B Y r b % : ; % 9 5 - > : q - : - 9 6 $ > * - b V L b V 9 r b B F b I D s m { G D g b 9 C ",
"@.r r N B L [ E q r V B b Y b r q r L b B r V : $ % * L V : * * 5 $ * * n b $ * $ : V b V b V q q r B U r n M s d Y G n 0 0 9 C ",
"@.w q g r V U I r L L V b V b b 5 b V b b b E b - O * P n $ $ - : # # # d n $ # : V E r B r V q 5 V b F b P Y F g U F n 2 2 0 N ",
"+.w q r q N L L r b r b r B r b 5 b r 9 r r E X.I q > q 5 - : > * : - * > 5 5 q Y X.U r r 9 b r 5 V a n d V B h s P n b 0 e 9 y ",
"@.w B V Y Y I V 9 N I b b V b V 9 r b L L L b L Y Y o.F Y E n F b L b ..I I X.Y E F B L U V n r 0 n s n s M G n 9 L V Y U V b y ",
"@.6 9 r I I V q > L E V q b q r : q B V L E 9 5 V E } b L P b U V I q R N B } [ B : q E B V B 9 , s p d s U R V ; b N R I r : w ",
"` > * 5 q b q : * B b 5 $ 0 1 1 $ : 5 5 r V * : q V V : 9 q : V b b : b q > V V q * : V r > 5 > * 5 5 9 - r B b : 9 q V b 5 $ 8 ",
"_ q b V Y Y E B q Y } L 0 U L V q V L I E Y q r L L L r V L r L B L r V B b V V Y r r E Y b b V q L V L b E } L b I E I I V q u ",
"+.e q V V B E V r V Y L r F L L 9 b b V V b 9 r b 9 9 : 5 5 5 q 9 9 > 5 5 5 9 q b q 9 b V V b r 9 L V V r Y Y b r I I b V B 9 y ",
"@.w 9 b q ; b V 9 b B b 0 B r r 9 b q b V L V V r 5 q r 9 : - : 9 ; - - > q 5 > r b L V b r b q > b b B 9 V L b 9 V b > b b 5 y ",
"+.7 9 b b * b L q b b b q n r r 5 q q b V b V q 9 q q q 5 : 5 : > - * * : > 5 9 5 q b b b r b q 5 b b b r B V r r E r : b b 5 r ",
"@.e 9 N V 5 : b 9 r b b 0 d b r 5 q b q r L b b q @ O @ O O @ * - $ O O O $ O @ 9 b V L b q b 9 9 b b b b b B q q b : 9 V B 9 C ",
"@.r 9 r V 1 : b 5 9 b b 9 V E T q 9 r 9 V Y I q @ X @ : @ O O . . . O X X $ X . @ q L I V 9 b 9 r E E b 9 b b > 9 r : 9 V b 5 u ",
"$.r > 9 r > 5 V 9 r E E 0 0 G R q - 5 > b r r * . X O 5 O O : $ O $ - O O $ o @ X * r b r 9 q : V E B 9 r E I q q V 5 9 r 9 > u ",
"&.c > q 9 5 r Y V 9 V E q : q V 0 & 1 0 F r n $ @ @ . : @ @ : > > : > - * $ X * @ : b B V q 9 : N V q > r V r 9 V I 5 5 9 9 9 N ",
"&.Z 9 b q r > b b : q V q , a L b = 0 q b r V - : X X $ * : : - - $ - 9 : $ @ @ @ 5 b b b q 9 > V V r > q b q 5 b q 5 9 9 9 9 Q ",
"&.Z 9 9 q 0 % , b , 1 r q ; 2 b s ; 5 0 9 9 q * - $ X * $ 5 > $ * $ - - * * @ $ O : r 9 5 q > 9 V b 9 > r r r q r 5 5 q r 9 q W ",
"%.N q > 9 9 = = b , * 0 q ; , 2 2 ; > q : 9 > # $ $ X - : > 5 * : $ : * : $ @ - @ $ 5 9 5 9 - 5 b r 9 > r q 9 r b : 9 q q 9 q Q ",
"@.g r > ; 9 > % 9 q 0 b q > = < 5 * * 9 9 > 5 * O % O $ 5 % : @ $ @ : * 5 O O $ @ : 5 > 5 5 - : > 9 - 9 r r 5 5 r 5 9 q 9 9 q Q ",
"O.0 q 5 ; 0 5 * q b 0 b b q * * = $ $ > 9 9 q 9 $ > : - 9 - : $ $ $ : * q - - - @ q q 5 5 : $ $ - - : 9 r r 9 r 9 : 9 9 > 9 9 A ",
"' 9 9 0 9 r q > 5 r ; 5 b q 1 9 5 % $ * 9 5 9 9 $ : 9 : b - * * $ - $ : r > 9 * $ q 9 5 5 * $ : 9 9 9 q r 5 9 r 5 9 9 q 5 q 9 C ",
"@.9 > r > 5 9 > - 5 1 - 9 0 q 5 5 5 > * > : 5 5 $ - : : b 9 * > : : * q B 9 9 $ - 9 5 : : - 5 5 9 5 9 9 5 : 9 9 : 9 q 9 5 q : u ",
"#.w - r 5 : > 9 > 9 q 5 > 9 r > > b b : * : * 5 * * 9 5 r b - 5 5 5 : V r 9 0 : : > ; > * > b r > 5 q > * 5 q 9 9 q 9 5 9 q - N ",
"#.e * 6 9 * : 0 9 9 r > : b b 5 > 9 r > * 5 > : > > 9 r q Y q 5 q 5 r U q 0 5 > > * ; > % > q > > 9 N 9 * 5 q 5 q q : : 9 5 ; C ",
"@.r ; > 9 : - > r r b r : 5 9 5 - - - > * > > - > 9 > B r E Y q q q E Y r b > q > - > * * > ; ; - 9 9 - : q b b q > - > 9 > > v ",
"] r > ; 5 > * % 5 B L B : - : : : * * : * $ > 5 > r q V b L Y 9 9 q E V b b 9 q : 9 : # * * * * : : : - > b V r - * * 9 1 > > y ",
"] e 5 > * ; ; % $ * 5 q 0 * * * > * * : 5 $ * > * 5 b q 5 9 q q r r r q 9 5 r > % : $ * & % $ - : * * - 9 0 > * $ * * - ; 1 > w ",
"$.w ; - $ - 5 * - * % : 5 = - 9 r > * - q ; # $ * - 5 : 5 r b V L V b b 9 > > % $ # # - & % % > q > * > > : * * > * 9 ; % ; - w ",
"@.7 $ > > ; > ; = * * % * , ; - 5 > * % - % # $ * * * > 5 b V V B B V b 5 5 - * * # # - % % % 5 > - : 5 - * * * * > > - > : * y ",
"O.w % ; > * * ; % * 5 - # = * * % : - % * % * $ * * $ - 5 9 L B r B L 9 9 - $ * % % * * - % ; ; * $ * - $ : : * - : % - > ; * y ",
"] 7 % % ; ; $ ; ; % * = $ + $ & % % : - $ $ # # @ $ $ $ : 5 r b b b 9 5 > # # $ @ $ $ $ % ; % % $ % $ @ % % % ; > * * ; = * * q ",
"+.5 % * = = # # * % $ $ $ + $ ; * $ % * $ + + + @ @ $ $ * > 5 r N 9 : > # + @ O @ $ $ $ $ % $ $ 3 5 $ @ % $ $ % * $ % - % = $ t ",
"=.> # > * + # # % - * + $ ; + $ - $ # $ % $ + + $ @ @ $ $ - > : > ; : % % @ @ # $ $ $ $ $ # # $ * $ $ ; $ # % % $ $ @ # * * $ t ",
" .; # % & + $ > * $ = % $ $ % + @ % $ @ $ % + + $ $ @ @ $ $ * : ; > - # @ @ @ @ @ @ $ $ ; $ $ % @ $ % $ $ % % $ * - $ $ * $ $ y ",
"N * $ $ # % & ; : $ $ * $ + + + O @ * @ O @ $ @ $ - $ @ O @ O $ 3 * * @ O o @ @ @ # $ @ # $ $ @ @ $ $ @ $ % # % - % ; % # $ $ t ",
"7 $ % # O + # # $ % @ @ + + O O @ O O $ O O $ $ @ $ $ @ X O O . X O O X O @ @ O # $ @ @ @ # @ @ $ @ @ # # @ # $ $ # $ # # $ # t ",
"9 $ $ # + O # # # @ $ $ + + + O O @ O O @ O @ $ $ O O @ O X X . . X X o O @ O @ @ # @ @ # @ O @ @ @ $ $ # # # @ # # @ @ @ # # t ",
"N % @ # # + O + @ + + # # O + + O @ @ O O @ O O @ @ X O O X     . X X o O O o @ @ O O @ @ @ @ O @ @ # @ $ # @ # # @ @ # $ $ @ u "
};
