/* XPM */
static char *alien_door[] = {
/* columns rows colors chars-per-pixel */
"63 64 73 1 ",
"  c #070706",
". c #070807",
"X c #080807",
"o c #0D0D0B",
"O c #130F0D",
"+ c #13120E",
"@ c #1A140F",
"# c #161511",
"$ c #191611",
"% c #1D1B14",
"& c #1E1C19",
"* c #201711",
"= c #211E15",
"- c #211E19",
"; c #222117",
": c #2A2017",
"> c #252419",
", c #29261B",
"< c #2B2A1D",
"1 c #322118",
"2 c #322B1E",
"3 c #3C2B1E",
"4 c #252321",
"5 c #282623",
"6 c #2F2E20",
"7 c #312F21",
"8 c #3B2D20",
"9 c #343323",
"0 c #393625",
"q c #373825",
"w c #3A3927",
"e c #393628",
"r c #3D3C29",
"t c #422A1D",
"y c #422E21",
"u c #482F20",
"i c #423424",
"p c #4A3424",
"a c #433927",
"s c #4B3926",
"d c #423E2A",
"f c #4A3D2A",
"g c #513625",
"h c #523927",
"j c #523C29",
"k c #5A3C2A",
"l c #44432D",
"z c #4A432D",
"x c #53432D",
"c c #5B432E",
"v c #474630",
"b c #494730",
"n c #4C4B32",
"m c #524630",
"M c #5A4630",
"N c #514D34",
"B c #5A4C33",
"V c #535136",
"C c #5A5136",
"Z c #565438",
"A c #59563A",
"S c #5C5A3C",
"D c #614530",
"F c #615E3E",
"G c #615F40",
"H c #646242",
"J c #696643",
"K c #676842",
"L c #6C6B46",
"P c #746C45",
"I c #716F49",
"U c #75734C",
"Y c #847E54",
/* pixels */
"dxCZzadfsxfdblqrnnvvw9rvrqq66>&;%>9qrqrvr9rvbnnqqvnljxsfdazABjl",
"bBxNblffxxaldrrvnnnrwlvrwl96>>><>>>9wdrdllqlnnnvlwlviNxffznnxBl",
"VZzlfhhCndzrrbnZVnwrnnlllrq<59qqq966rrldlnnrrnVVVdqlflNZhgflbAn",
"nnAAnhBNzaiwvnZGVqrnnlvvrqrqqrqqwrwrrqrvllnnrlnZVVvdszbVxxnSSnn",
"lZSVVxbnnadvnZAZqrbllnnlrrqdlq667rlrwwllnnrbllrVVVnnrlnnzBVVSVl",
"vSVZSflZnrnVHSAdlnZlbnllrbwql9>%5rl9rvrllVllnnllSZGVbrVZdzAVZSr",
"ZVbnbanVdnZSZAvdlVnbVllqrrlq9;#+%7rrrlwwlbVvVZNlvZZZVblVNivVnZn",
"nZISlfNdnVZVVvlVNZnVblqqllvq>#+++&qrnrrq9lnNnSSVlVZVVVbrNzlHHnn",
"bSHnnBalVZZSZaVAAnnvrr9lrnr9%##%##<wrvll9rrnNnSAnaVZNmNaaNnnJAl",
"nSVbAfinZVnAdaACnNVrlqnlvrq>%%%%&#%9qlvvlqlrVnnAVppmnjmnixSnZSl",
"VZfVZinASnVdysmflVlbqrZlvq6%#%%;%%#;qqvvVqqvnVfxxp3pfpjCziSnzAn",
"nspxwinSnnVrfkkaNl9r<rZGlq;%=;%;=;&&>qvGZq<l7lnajkfpxzscniaxpzn",
"bzNsyzZZlNzvASbbV9r9><VGlq%%&;>>;;;%;rvGn<>qwqVlCFAzxNdjmd3hzzz",
"bnSddZZlvZanASdzrrl9qqVvr>##%%;<;%%##qlVnqqqlrllbHZndAzfhstpAnb",
"lACdnNl9Nnwrbnb0%<wqlvVlq+#>9<&=%67;+;rvVllqr<%rbVNnrVNwfzp3ZVl",
"lSflzy3iZn9;ldN0%qwnlSVr;+&qvq;>>rl6%+6rVZlvr7%aVlKInzAiups0aSr",
"nMin<@8BNn%;lnA21wlnnFlw%&>9br;;>dv6>#;rbGnVaw:0SrGIAlZBp@7niNl",
"mfdA;,sAVn#qlVZ<qqbbVVl7;%#%7r>=<w<%#%=0lZnnbq02SNNIGbbCd%<Swjz",
"myiCZbmZlZrnrZSqw9NlSnl<<#57=76<76;7<#<7bVZlnqrqFZbSSnlCxNCCwpz",
"myukcBSn9nVvqllr7lnlVlq6,%rd><6>7>>lq%><rlVlnr9rlnrnVzwVABkguyn",
"ndzkcZFblZKnrnlb7vlrlr67>-vd<97=q7<vd-4<qlnrvl9nlnqZKZlnSBkkxln",
"rvVBcGJlnSUnnNbV9nlVV9;<-%e7>7,><7>97$5,<rZVvv9ZlVlZIZblSADcZbd",
"rbnlxSGdVGIrnrbl9lwnlw;6>>d0<<>6><<ww;<<>qvbrn9vlnnlKSblSAxznaq",
"wlVvaSbdZGSrVrnqrnnSql<7-6Nl7q<q>95vb,>7>qrSnVqqnrZwFSbaZAaklw9",
"qbnSVSrrVHVrVrnrVZZKrl>q;<br<7<r,<<rv,,9;rdKvnrqbrZrZAmgCHBDade",
"qbbVGLrqlnrnZwlrnnlnrr#>;=r7><>q;>;99%>;#ldVlnl9lwAllNhyBFMzdrq",
"wlvVSSrlVVlVVwr7nvnrvV>%%,FN>%;<%==lN;%%<Vlvvnv7lwZndBBszSxb889",
"wrwvVSrnvnrvllw<VqvrnKn6$>N0#%,>%##7d&%7VJvrlqn<llzbdSZxzSzd7w9",
"ldrvnSrrllrvrlw9v7lwlGUSld0ww99>7<q09lvSUSlrwqb7laffaxzsdAll8dr",
"bnSKVV6lSZlnlvl9bnSFSwnZJYbJLbSnSvPSnYKSbqSSSVl7zssjkFAaqAnJFNe",
"67dVvr;lZnqqq0<>rrlnV=6nSS9bzqVlV9nvqHSn<;Svrlw>3tw0aZAr;dlSl7=",
"<9rvd9-lVq-6qq>>q6rnr=7lVl,rw<nlb<lr<bnv<=bbq>0;23027lNr<rlnl9=",
"lZSSJSwVKKrnGAbrZVGGVqvZnVrnnlZvZrvblbvSnqZGVlVrVVZnVIKnnHGVZVq",
"wlldZVwlVSrlnNrqnrnlr6ll66<<><666<<6<67lr6qlnrv9lvnlrGVrrVnrnvq",
"qlw>wVqwbn9lrrq9lqVnZVl96rlq>><9>;>6q9<qnVZvlqv6qrvrwVnqwVw<ll6",
"9ll>9Srwlbrllrq7lqllvr9rq96<<<<><;;;,<9q6rvllrr9rrvlrnvrVS66nr6",
"7lZq>wqqllr0bl0<lrqnZvv<+o%oo+%>%o+o%#o<rnZnqlr6rlvrvvv6lq>rVl6",
"<lb0>lq,rn00FFB,qqqVZV6oo#<#++o..#o.%oXX6ZZVqrr6SHZqqvr5qr>rvl<",
"<7r2,br9ZIn2zMA><<9lrq+oo+6o+>%+&>+o>o%o+qrlqq66KVr6nKn6lv<qr6<",
"6qq7qZZ9lSV:9zm:<7lnrl+;oo<##<<<<6>;;X%#%llZrq<6Vl9<vnqqSn>6qq6",
"7rwr99n<9zb,8bN3,rwlrl;>.o%;<<;>%>9<;++#>nrvqq<rVv9<dr99v9<qq99",
"q9qr;;l8,ql<:azt>q7qqr%,++>%6<%;%;<&>#%#%lq6q6<lvr<9lrrwq<6rw9q",
"r67r:*l8:6l6:ty0=90<9>@=++>>66%<#<;>;#;;+<96q6>rlw>9l9qlr>qwr6r",
"r6<79=6q9aw9>12<;<77<6%#%+;6-6#%#<&<#o%#%<<66<;696<qrq>wq6qq99w",
"r7>79>2llllw,=>;#&999r6#<;<q%<%%;>%q>->#9r966%%;>;6wlq9r<<w96qq",
"qw7rw,,l2>lw669>%%<9<q7#9<<r&;%%;;;l6q6+9q66>#;606qrw5qr699w6w6",
"6r66q7;69>6ww997<;>6697#>><v<-<=>%9n66;%q9<6>>66999966q6<w996w<",
">w9,<q,<q9<9w6,ql7;<;;6;<96lr;7<6>llqq>>6><>>qr65q9,;6q66q96qq>",
";6q>;9q9rq,9bq,9lr;>6,<;<w7rV77q6qVr99<<>;2>>rr<,rl<;qq7q9<<q6>",
",,9,><qqqr<6qq<,;6<;6;><77lrKV9r7ZGrl<96>><;,<>,<q9>6qqrr6>69<5",
"7,67;;<vZZ6;<<<;=;<=;666r6nlSK99qJSln6q66<;=>>;><<,>qVnl,;>92<7",
"9<><>>=,qqq>;;>,=;<;%<6>rllqrlqqqlr9qrq;<>@;;;;,>=>,qq7;=;><<7<",
"<<=;<>===<q,;>99;;6q%%;;<9>6qqnnnrr9<9>%%%=>===76;=69<%;>><;=<,",
";>>>q,=,==:2,<9q>=;6;#%;%<<6vnVVnbb99,==@$;,=*,q6,<6;%%,><7;,,;",
"=,6;=<==,,$;,;;><;;>%=%>%;66rZlrlZr9<==,%%=>%;,>=;<;%<;;>,;>6,;",
"==,,=;,=,<=+===;>>*=$;%%%%;69vlrll67%%%%%;=;;>>=%;=%;<;<<;;<>;>",
"==>1=%<====+@;>=;>>@@+##%##<69lnl<6=###@#%%%>=%=>>#%=*%:>%;,;>;",
"=>>*$$%>;@$=%*,=$=;$@@$$#%%%<57q<<,=#%+#%%%%=$$;<&%%$$==%$%*=>%",
"%=>@#==%,*@>>$@=%@%;%$@$##%;&<>>,<#%####%$%;*%%%%%;;%=-%;%#$>;@",
"%==*-,,%%;=@$%#@;#+%@%$=%%+#+#>7<=##o####%%&%%%$#%%$==%=>>>;%%%",
"=$$@=%->$%%#++@++%#+#%%%>;++#o#&#%######%##O#%##%##%-#$-=%=$@%%",
"=%#O$%%$%$#@#++@+##+#%%###+ooo..o#Xo##O#%%##$##$@#%#@#%$$%$#@%$",
"$$@@O$$##%%@@@++#++#+###oo++. ..ooX+#++##o###+#O##%##$##$###%%#",
"%===*$$$%$*%%%$>5444444554444&#&&&4444544454454&%&%&-&&-$%&;%%%"
};
