/* XPM */
static char *wall_west[] = {
/* columns rows colors chars-per-pixel */
"64 64 89 1 ",
"  c #0E0C0B",
". c #13120E",
"X c #171413",
"o c #1A1615",
"O c #1D1816",
"+ c #1C1718",
"@ c #1E1A1A",
"# c #201A17",
"$ c #231D1D",
"% c #281F1C",
"& c #26201F",
"* c #29211E",
"= c #231F20",
"- c #262221",
"; c #2B2523",
": c #2E2827",
"> c #2C2728",
", c #2E2929",
"< c #302724",
"1 c #322926",
"2 c #342D2B",
"3 c #382F2C",
"4 c #37302E",
"5 c #39312E",
"6 c #342F30",
"7 c #363131",
"8 c #3A3432",
"9 c #3E3837",
"0 c #3E3738",
"q c #3F3939",
"w c #413733",
"e c #433935",
"r c #493D37",
"t c #443C3C",
"y c #493E3A",
"u c #47403F",
"i c #4C413D",
"p c #51443E",
"a c #55493C",
"s c #615A3C",
"d c #453F40",
"f c #464041",
"g c #4C4443",
"h c #4F4847",
"j c #4E4748",
"k c #4F4849",
"l c #524642",
"z c #554944",
"x c #5A4C46",
"c c #514748",
"v c #544B4B",
"b c #5B4E4B",
"n c #5F5047",
"m c #5D514D",
"M c #564F50",
"N c #584F50",
"B c #575052",
"V c #5C5253",
"C c #604F49",
"Z c #62534C",
"A c #68574D",
"S c #69594E",
"D c #625653",
"F c #655855",
"G c #6A5B53",
"H c #615758",
"J c #655A5A",
"K c #695D5C",
"L c #6E6A42",
"P c #6D605E",
"I c #756157",
"U c #756359",
"Y c #79655A",
"T c #675D60",
"R c #695F61",
"E c #6D6263",
"W c #6F6568",
"Q c #716463",
"! c #726768",
"~ c #72686A",
"^ c #85735E",
"/ c #867263",
"( c #8A7566",
") c #8C7C63",
"_ c #8C7569",
"` c #8F796B",
"' c #927B6D",
"] c #957E72",
"[ c #978173",
/* pixels */
"&t5w;@$$%;;**gve*;;<**;<;**;,,;;,;;;*<<;**;1gc9*;<;;;%$#$3w59*CS",
";vii3%;##*;<*xHi*;;;**<**&**-;51;;*&$**;;*<2VVr;;*;;%#$;$wgri1YI",
";vii3== .XO#$vFi;&$$$OOoXoO&+X3-X$$oooOO@@$;mFr&$##oX X-$wppi4YS",
"1Dxz7%&$51152VKz2<3444554758>=7;&23555558859VFg,33;38,$-&ybzv4UZ",
"1Pxxq$%=63231VKx423424845895,%7,&44585844080HGz,33244,%%$jmmb4Im",
"2EDV0@$+23331bJx245545844558;@,-$45488545559HFl;12054;@%$cDDm2UA",
"4EKHt$$+25532VKx215852828424;@,$@44145585539DDp;14889;$&$vKJD2IZ",
"5PPTd$$@88322bFz215555884112,@2--,1144885585VDl,52285,@$$NWPH1IC",
"5WWJu@@@8832;vJb225484353444,=2>-44483823885DHv;4;458,+@$vEWH2Im",
"5PPVi@$+68863NJv223851157377>-6>-44263311858VHc,44459>+$%zPKZ2SC",
"5PKZr$$+:2338VHz42295<<522280>3,49722222<58wVDi154444&+-%zKKZ1GC",
"5FDxr$-@;2236VFz42593332220jy8669gf823231588DDi18541:&=-%cADm3GC",
"8Vxpw;;=27338VJl,37863327yjd;$@=$2gjq3263508DHp;84348;--*izmm1SZ",
"5Pppw;-$38332NFp,3788,28jg0--;-;-&,tjg322w6eHDy;44358;->*ipxV4Sm",
"4Haiw&;@,8631VDp223282tjf;$;17553;-&7gg83828HVr>33255*$;&ipam2Za",
"3Dpa9$;;8tytyKFi30tygjgt;-,32595324;$2fvdgeyKDr4ittue2;*&pppm1ni",
"3Szxt$;9vvMvN~Fytcvjkg2$&28445593287>%-0kjkv!DytVNvvvc4%=zxxC2ZC",
"4Axmg$;;>>>,2VDy236762$@495435w533589,+;4638Vme,3,,,>;;;=Nbxb3px",
"3ZnHg%%X@&@@@jVp8368788tMMcczcxvccvvvc7t7678VFe$@@@==+#==VDZx2rp",
"3GnAg%;@2443,NFpVDVKHJJJVPKKKFKKKKKJJKKHFJFJKmi;,7224-$;-DZZm2il",
"3GZDj=;$42282vmgpppipplxpxvclppippzzzbmbxmZblpi>28323>%;-mAZZ4gg",
"3Fxbd=;=52354972211121;232222122211322,2;222,122285232;;-vmmx2ii",
"1ZxVd-;-8332478345231>>;25554555853325-4$5<32377285132=,-vmma1ui",
"3Zlby-,-532585424522>>,>58455599855342-4$525883336512>->-zmln1ug",
"3apZy---423424224324;,7>45475595553333-8-224443243543:->&xmia1rp",
"3xxmr->-235532488347>,8>44884585388687-q;237387334544>->-cDix3ii",
"2Hmmr-;$234522788723,3t69qqdtt99ettttq,f>225788314544;&>-zAmv1ip",
"5HCme&-@3444328888237qkjvkvNVVbvNVvcckgj0337858442455;&;&zZVx3ig",
"8Dxmr$&$784437777830e0yt88223788732380tett87887742448:&*&lZmV4ug",
"8Hmxw$&$4854442228tj0;-$ooO@@$O$@$@oo+$;,gg8422444558,O&&pnmV8uh",
"7VVVr&#$278832222yvt>;,,;-22,,1;;22;;;>;;2jve2,244888:&*&hmVB4ih",
"4DVme&*O27787,2qgg8;;88621228352283123684-;tgt8224885*O&&lmBB4ii",
"8Zxbe&;@256647yjt;$15353251381326333323833;$2gj023734;%;;lbbb1ig",
"8Fzxe%--22230gj8%-,311535011514552138833118-%;yjg8223;=-$cbmm1ig",
"4Axme&>-22,tvy2$-683<1435011534432<383331<95,&-8gg8,3>-;%lxbn1up",
"5Fzvt%;>29yjt-$;38w3138459237278531199323<5972&$2ggt82>1$vxxm4up",
"5Favt%,;8yg8-$,5,283238585259478852258584185,14;@:tyy2,>&kxlD5ui",
"5Ppmd$20ge870gkctyjgddfttteeqqqqtt0ttetyfujgegvkt885dd8;&vxpF5ii",
"3Dpvd$3de22tMVJHHJREEERVVVvBVVBVVBNNNVTTEWEKJHJHVj826tt:&vxpb4ua",
"1Dpxd$2832318qq830tydty08808qqqqt80888tttdyt558qt622386;&Mxib4fg",
"3Dpmg$;$+@@@@===$&-----$@$@@@>7,-@@-$$$==->>$&&$@+@@+o*;&mnim1fh",
";mpDc&*O$>>-->,;;27,7,>---;&@@7>@$--==-22,,6<;>>>;;>;$$;-VZzg,ui",
";VmHg%;$133;;773<288887,212*&+8-O*,22>28888813272;132&$;-BDZp:up",
";KZHg;;;32211373<2885542232;$X2-o*1122277887;2764;1222;1>BDDv:ug",
"2RDTg-2tg3<;2,741495558442:2-o,&+,212327878824662,,<9g5<;VKHb1ui",
"2EDVd-1;0jw320gighhziggfiiigq8gu8igyydggggjgggy2225tg4,<;MFHV:ui",
"2KZVd;;@$3ff8V!PPEPPPPEEQEPEWEPPEQEQEQREEEPUE!V,3tgt>o&:;vDmV1na",
"5RFVd;;@=$,fjJZpriurrrriiiihggiurerripplczpzxxr3dje%&@$:-MPDV4AA",
"5PVVd--=2>=-tRFi1144:42,4:446,4:,,41:6464424pmi8g7=-2----MFHD3DZ",
"5EKHf-;=283%$vDp*,55447644457,54185446474359mmr;;=;78;->=NKRD3Sm",
"5EPJg$&$2842-jDz48q9558624146,974414627885quJVe&-;387-$*=VQRm4Gm",
"8FKKf%&@;3823NJv7ikquuuuttt9767749ttquufutfbEVu;63283%@;=NEJm2Fm",
"8ADVy$;@<4822VJv&:hutfjgggutt8789tqfhfhfuqjfBmi:82374&&;&vHmm1Sm",
"5Vxxg$-&<4512NHz&&;;->-----&->76>=&--&->--;,bDr,41282*&;&cmnm4Zn",
"5Kazf&,$,24<;VJl::>;>;-----&@$7,@$&-$&->>>>,VHi,3;242*-;-xnzV1Zm",
"4Kizt&,&125;<VJz&,9888714,2;&&7,$*:44,247799mmi:3;142;;;&hlxm1ZV",
"3Gllt;;-1111,BFp;2883372322;==6>$*:14415458qmmi:4<111;*:;pzxm3ZM",
"3Dzxt;;-;<;11NDi;378337231;2;-2>;,::14454459VHh,,11;:;&;-hxzZ1Sv",
"3Zlzt*,-;<<12NFi;638336,;;>3,>>;>,2:*:644485VVv;141:1*;:;hzzn1SB",
"2Zpy0;2;;3<2>bDi;2283262;*,6,22262,:*;265554VPh;,,111;;4-uizx1Am",
"2Fiw8;2qdccvvEFy8dgdgcvNvvbMj924tvVvvxvkhifgTZp0vvvkgu54&9uim2mZ",
"3Zi93*120ydttHFp38ettdtytw005311280e9ufuqutqJGl2tyydt51:&5iix4na",
"iKmxperrtiyllKQZylzllyllyrdpiriiiigiihxaphaiQUGyiigliiwwexmmAiaa",
"([]'`''''^`'''''`]]`____/_`]'''`'[[]'[``[`[[[[]''(_`[[^^/)`((`sL"
};
