/* XPM */
static char *wall_futur_2[] = {
/* columns rows colors chars-per-pixel */
"64 63 97 2 ",
"   c #060606",
".  c #080708",
"X  c #0C0B0B",
"o  c #100F0F",
"O  c #100F10",
"+  c #141313",
"@  c #181717",
"#  c #191914",
"$  c #191718",
"%  c #1D1C1D",
"&  c #201E1F",
"*  c #22201F",
"=  c #211F20",
"-  c #252224",
";  c #282626",
":  c #2B2827",
">  c #2A2728",
",  c #2D2A2B",
"<  c #312D2E",
"1  c #34312D",
"2  c #322F30",
"3  c #353233",
"4  c #393536",
"5  c #3D3935",
"6  c #3B3738",
"7  c #3D3A3A",
"8  c #413D3E",
"9  c #45403E",
"0  c #49423D",
"q  c #433F40",
"w  c #454142",
"e  c #494545",
"r  c #4D4946",
"t  c #4C4749",
"y  c #4E494A",
"u  c #584E42",
"i  c #524C4D",
"p  c #5C524F",
"a  c #554F50",
"s  c #565152",
"d  c #5A5455",
"f  c #5D5659",
"g  c #5F585A",
"h  c #625B5D",
"j  c #695F5F",
"k  c #6C615D",
"l  c #665E61",
"z  c #695F63",
"x  c #676063",
"c  c #6B6265",
"v  c #6E6669",
"b  c #6F686B",
"n  c #716665",
"m  c #70676A",
"M  c #726A6D",
"N  c #766D71",
"B  c #786F72",
"V  c #777172",
"C  c #7B7376",
"Z  c #7E7578",
"A  c #7F797A",
"S  c #81777A",
"D  c #837A7D",
"F  c #897F7A",
"G  c #867D80",
"H  c #897E82",
"J  c #878284",
"K  c #8B8285",
"L  c #8E8588",
"P  c #8E898C",
"I  c #91868A",
"U  c #948A8D",
"Y  c #978D91",
"T  c #998E92",
"R  c #959091",
"E  c #9C9295",
"W  c #9F9598",
"Q  c #A0969A",
"!  c #A39A9D",
"~  c #A79EA1",
"^  c #A89FA2",
"/  c #AAA2A5",
"(  c #ADA6A9",
")  c #AFA9AB",
"_  c #B2ACAD",
"`  c #B5AFB1",
"'  c #B7B0B2",
"]  c #BBB3B5",
"[  c #BEB6B8",
"{  c #C2BABC",
"}  c #C6BEC1",
"|  c #C9C1C5",
" . c #CDC5C9",
".. c #CFC8CC",
"X. c #D0CACE",
"o. c #D4CED2",
"O. c #D8D3D7",
/* pixels */
"# % < 9 5 O         X . X X @ O $ $ = $ $ + X     O % $ + O % % % % # % % % % % $ @ + X + @ @ @ + + + X o . . O o .   X 2 8 4 * ",
"# - 3 9 5 + . X X X X o + X + X + @ @ + + X . .   X O X X X o O O + + + O @ O O @ @ + + + + + + + + + X o X o . . . . . 2 w 6 * ",
"@ = 3 9 8 , , 3 3 3 3 , 3 2 3 2 , ; , < ; = % = % % = $ % * % - - : ; - : : - : 3 3 3 3 3 < < < < < ; > 2 , ; % * * % + 4 8 6 * ",
"% ; , 7 7 , 3 7 8 8 w w 9 7 5 6 7 4 4 6 6 4 < , , , 3 ; , , , 4 7 4 4 4 7 4 - : 8 8 9 9                                       & ",
"% - , 7 7 7 7 r r r y y y 9 r y e 3 3 3 t q 4 6 7 4 0 4 3 7 5 y y e e 0 w 3 : - 4 9 9 e                                       * ",
"@ - > 6 7 5 w w k N v M M N V V Z C V A y q B G J A F F J P J P R R P P P P A J J P J D                                       & ",
"O % , w y 3 3 i g R W E ! / / ( ) ) ) ` h y / } } } } | ..o.| X.O.o....... .{ } | | ] _                                       % ",
"@ % 3 9 w 3 3 4 i x E Q R W W W ~ ~ ~ W s y ~ ` ' ] ] ] { } [ | | | [ } [ [ _ ' ] ] ) /                                       * ",
"@ = 3 q s a 3 , 3 i h P Y H H H H U H z 7 f T Q ^ ^ ^ ^ / ( ^ ( ) ) ( ( ( / Q Q ! ! Q U                                       - ",
"$ = 3 q g S g 4 > 3 y f L P G H H N s 6 a G H Y Q ! ! ~ ^ / ^ ^ / ( / / / ! E T ! ! I K                                       * ",
"$ = 2 7 g H C g , > 4 i d U L v m q 6 l U ~ ~ ~ ^ ( ( ( ` ' _ _ ` _ ) _ ` _ ( ! ( / ! Q                                       * ",
"% > , 7 f z i q 3 ; 2 3 i d H d 3 q m H U H U Y T Q ! ~ ^ ^ ^ ^ / / ~ / ^ ! ! Q Q T U I                                       * ",
"% = < 7 f g 3 6 3 2 2 2 8 d f H G N C G C G H H H H E T W E T T E E E Y E Y U I K H D D                                       % ",
"$ = > 8 l B f f g l h 8 6 q d h H G C G G G G H H H H H H T T T R R Y R Y U L F H F D S                                       % ",
"= = , 8 f P G D A H R b 4 3 q d h Y ^ ^ E W ^ ^ ^ ^ ` ^ ^ _ ( _ / ( _ _ / / / / ^ ^ Q !                                       % ",
"% % , q s G M v v M D Z h 4 2 7 s l H ~ H H H T T W W W T ! Q Q W W Q W Q Q E Y ! Q U Y                                       % ",
"$ % < q f Z z z z x Z Z C h 2 < 4 y t L T H I U H T Y T E E W E T T Y Y T U U U E E U U                                       % ",
"$ = < 7 a B z z z z C Z C S h , ; , 8 a L Y L U Y T H T E H H T H T H T T U U U T Y L T                                       % ",
"% > = 2 f B z z z j B B C S C d , - 2 t y L T I H H Y H H H H H T H H T H Y H U U I I T                                       = ",
"= = = = a m y t t t h f h z z j t < 2 4 e a I K N C S Z G G H G G G B C G G C C Z G Y f                                       % ",
"% - = , g B f f f d c v v n M M N l 6 2 6 e s H H G H H G H H H H H H H H H H G H E l q                                       % ",
"% = - 2 g S z z z z B B V Z S S G S z 6 2 2 q s Y E H E U U U U H T H T U I U E ~ z t 7                                       $ ",
"= = , 4 d N a a i i h h h h x v v b B g 2 2 6 q a P H S G Z S G S G G G G G H T z q 4 ,                                       % ",
"$ % , 8 d v q 7 8 8 i i i s s a g z z m y 3 , 3 q f Y Z c m b N m m m m M C P z q 7 2 2                                       % ",
"+ = - 6 a A x d f f v x c N M c B G G H S g 4 3 3 q h P P H P H H H H H T T l q 6 < 2 f                                       $ ",
"+ = ; 6 s V s y a d x h h v c x v N C G B N f 3 , 2 q f R P G D G G G H E z q 6 , , i C                                       $ ",
"% = < 8 f V i w e a f d d h h x v z N B N N N g 3 > 2 q s H H C m N G I z q 6 2 < i M B                                       & ",
"- % 4 q f v w 6 7 9 y r y a s f z f z z l l z v i , , 3 q y C A Z Z Z f q 6 = = e v c x c l g f h h s s s s y w e 8 6 i x w 7 - ",
"q 8 q w g b w 7 7 8 y r y i i f l d l x l g z v z s 3 , 4 a v Z C Z N f 6 = = q x c j z h f s s f d i i t w w 8 7 5 6 y x w e 7 ",
"7 q t e g A h i s s h x c x v b B N B N B N B S S H z 2 3 a l M V N z s , = t G S Z C B M N B M m v v v k g g a s s s g x r y w ",
"3 q e t h M i q e e y s f e a N C G z t l z v M m m M q 2 q 6 7 e q 3 8 , > z M m v v h i M S C m t t f i y y w y w 7 s x y e w ",
"7 q q q g b w 8 8 7 e y a 4 3 e y t 3 q d g z z l l v q 2 q 8 t a y 7 8 2 3 z v c h h f 4 7 y i w < 8 i y w e w w 7 4 y x w 8 w ",
"; ; 2 4 f b w q 6 7 t y t 3 6 a a e 3 e f f g g f h z q 2 t 8 6 6 4 3 q 2 3 l z x h f f 8 3 y a y 3 7 y y e e w w 7 3 y x 6 3 > ",
"& & ; 3 f h 4 , < 3 7 7 4 ; 6 q w 7 3 y e t y i t i a 6 2 i 6 2 , < 2 w 2 2 i s s i y y w 4 8 w w 3 > 7 7 7 7 4 3 , > e x 3 , % ",
", 2 : 4 g b w q 8 w a y 7 6 s f f e s v g s s f a f f 2 4 y 6 3 2 3 3 w 4 6 h h x x g x x i y f d i 3 w y a y e y 8 w f x 8 , , ",
", 3 < 8 g b w 8 8 t a y 3 w g f y w g x s y i s i a s 6 4 6 ; = = % = 3 4 7 d g v v g g c s w s g g 7 7 a i s w y e e h x q 3 , ",
"- 3 < 8 g l 8 6 4 6 q 7 > q y e 7 w f s t e w y r a q 6 2 2 , ; - - % > , 3 8 a h g a y g s 7 7 e y 6 , 8 w y 7 w w 8 d x w 3 > ",
"* , , 8 d d 6 4 3 4 4 3 > < < < 3 w s y e q 8 i s t 6 2 2 < < 2 3 3 < = = < 4 q d g a w a a 8 2 < , , > 3 7 w 7 6 3 3 a x w 3 > ",
"$ * < 8 d i > - - > > - - ; ; ; > 3 7 q 4 2 4 s t 6 < - ; ; 2 4 , < 2 > $ > 2 4 q a e 6 8 6 3 > ; > ; ; ; , 3 > > = = w h w 3 % ",
"% , < 8 s d 8 4 4 7 8 q 8 7 e e w q w i y q e q 6 < ; ; < 8 q q 8 7 6 8 8 > < 2 3 8 y y d y w 8 w y y e 8 8 e 6 6 3 , i h w 4 - ",
"% > < 8 s b d i e e a a t e s f s y y f s s w 3 3 > < < t a i s i w w t a 7 > > 6 7 8 g b v f a d x x h s a g y y y w g x 8 3 - ",
"$ > 2 8 d c i 8 8 6 e e 7 6 q e e 7 7 y s 8 3 3 > 3 > 8 i q q q q 6 3 7 e 8 2 > , 3 6 w f h y 7 e a i a y 8 a w 8 w 4 s x w 3 > ",
"= 2 2 8 s l w 3 , , 8 8 > , 3 3 6 , < y 8 3 3 , < = = 2 q 8 2 2 , , > , 4 2 > > > > 2 6 3 y w < 4 7 7 8 3 2 w 3 , 2 > y g 8 3 , ",
"- 2 2 7 i h 7 , - - 6 6 - - 2 3 6 , 6 6 3 3 > < , = = 2 q i q 6 3 , > , q 7 2 2 2 , > 3 < 3 q 3 6 6 7 w 6 3 y 7 2 > - a g w 3 , ",
"% , 2 7 i V s t q 8 y a 7 q t y s a 3 < 3 < ; 3 q q t i l m z p i a i y l g i i d y , , 3 3 6 a f h x b f s b h y y y b h 7 3 > ",
"% < 2 8 g h 8 3 2 3 q 8 2 3 8 q e 3 3 3 > > > 4 q 8 q 6 q a i 8 6 w e 6 8 w 6 6 q a 8 < < 3 3 7 i e y a 8 w a y 6 4 7 s h w 3 > ",
"% : 2 8 s s 4 > > > < , , , 3 w 3 , > > > > < 3 6 3 3 < 4 q 8 < , 6 8 2 2 6 2 2 7 y w 3 > > < 3 7 y w q 2 2 w 6 3 2 , y d w 3 ; ",
"* 2 2 8 i t > - - - - - - , e q 3 3 = % - > , 2 3 > = = > < < = - , < - > > < 2 7 e 7 6 2 > , 6 8 q y q , , 6 2 , - = 8 s 8 6 > ",
"- 2 3 w s t , > > , < , , w w 7 8 = = = < 4 > > > > < < < 6 3 6 > 3 4 > , 7 t y s h i i g y 4 7 8 7 7 i w w i e w 3 2 d g w 7 ; ",
"* 2 2 8 y d 8 6 3 6 w t y w 8 8 6 = = 6 q q 8 8 q 6 4 8 q q q q 7 w e 7 7 w y i d x f a g h 8 < 3 6 6 6 s i s i e w 8 g d 7 6 , ",
"- 7 , 3 i i 2 > > , 7 t 8 7 e 7 < > 2 3 3 8 3 8 6 = = < < 4 8 8 > 3 3 , 2 2 2 3 w s t 7 e y 7 , , , 6 6 8 y w 4 3 3 3 i d 3 , , ",
"; 3 - ; i y - % = > w 8 6 w 8 < = = > = = > = < 2 = + = & = = = % - ; % ; - ; ; 2 w 8 , 4 3 ; = - - , 2 7 w y , - - - w d , = < ",
"% ; ; > s i , > > w 8 3 6 8 3 , = < 2 8 3 2 > 8 q = & = > = , 4 ; - ; > 3 , , , 3 t q 4 7 < , , 3 7 , ; 3 8 8 w , = - e g < ; - ",
"+ & > 2 d f 7 7 a w 3 3 , , , 7 q q q q q 8 8 i y q 3 q 8 q q q 7 2 7 7 8 7 w e y f i e a e q w y d w , 2 7 8 w i 8 3 i x 3 , = ",
"$ % > 4 a e 6 y t 3 3 3 , > , 3 4 < < 8 < 3 3 q q < = > = 3 2 8 > ; > < > > 3 3 7 y 7 3 q 8 2 3 4 7 8 4 > , 7 8 e e , 6 f 6 , % ",
"+ + ; 8 q 6 y y 6 3 , = = = > 3 3 = = 3 < < > 8 8 = = = = = = , - % - - * - , , 3 7 3 , 3 < ; ; ; > 2 6 > - , 8 w e q 7 a 8 < O ",
"% % < 6 4 q q 6 3 2 > - - - - > = = ; 3 < > , 6 8 = = = = ; > 3 2 - > , 2 < < < 3 4 3 3 6 < < < , : , 8 2 < < < 7 7 8 e w 7 3 % ",
"% = 2 6 6 8 2 4 3 > 2 q 7 7 q q 8 4 8 a i q q a a 8 6 8 8 6 8 a i 7 8 y s a s s d d s d d a y a t q w g d a 7 : < 7 8 w 8 3 3 - ",
"= = < 6 q 6 4 < 2 > 3 6 > > , , > ; , 8 8 < , 3 8 = ; , , = ; 5 6 ; - 2 6 7 e t t 8 < q t 4 < w 4 , : 7 6 7 < : ; , 8 w e 8 3 = ",
"@ = , 2 e 6 < , - > 6 3 > - > , ; = ; 6 3 = > < 3 & = < , = - 3 2 = = , < 3 7 7 q 7 , 4 8 4 < 7 2 ; - 2 < 7 : 3 3 ; 4 e e 3 , = ",
"+ % > 3 8 1 , : - , 4 3 > > > , > ; ; 3 6 2 2 2 , & & : - * - : ; * * - - - , < : , ; < , , , 3 ; - * * : 3 : 3 5 : 3 8 w 4 , % ",
"@ + ; 8 7 8 8 8 8 5 w w a a w t d p a p a h h h h a 0 a u 0 i i e 0 8 9 8 6 0 9 5 9 5 0 0 r y r 0 p d i d i g g h g d w w 7 < + ",
"$ $ , 7 5 i p f h d l l b v l v n z m M m N N M N j u z n x c b c k g f g s g f d f s k c b v x k v k b b x V V V V x r w 7 3 $ "
};
