/* XPM */
static char *wall_east[] = {
/* columns rows colors chars-per-pixel */
"64 64 73 1 ",
"  c #0A0906",
". c #0E0C0B",
"X c #110E0E",
"o c #15120F",
"O c #151212",
"+ c #1A1514",
"@ c #1D1917",
"# c #1B1719",
"$ c #1D1A1A",
"% c #211A16",
"& c #231D1C",
"* c #281F1B",
"= c #26201E",
"- c #29211E",
"; c #231F20",
": c #262222",
"> c #2B2523",
", c #2E2826",
"< c #2C2729",
"1 c #2E2929",
"2 c #302724",
"3 c #322926",
"4 c #342D2B",
"5 c #382F2C",
"6 c #37302E",
"7 c #39312E",
"8 c #332F30",
"9 c #363131",
"0 c #3A3433",
"q c #3E3836",
"w c #3D3738",
"e c #3E3939",
"r c #40342F",
"t c #413734",
"y c #433936",
"u c #433C3B",
"i c #493E3B",
"p c #47403F",
"a c #4C413C",
"s c #50433F",
"d c #453F40",
"f c #464041",
"g c #4C4444",
"h c #4F4847",
"j c #4F4748",
"k c #4F4849",
"l c #524643",
"z c #554945",
"x c #5A4C46",
"c c #504748",
"v c #534B4B",
"b c #5A4E4B",
"n c #5D504D",
"m c #564E51",
"M c #584F50",
"N c #5C5353",
"B c #5F5658",
"V c #61534D",
"C c #625653",
"Z c #655855",
"A c #695B56",
"S c #615759",
"D c #655B5B",
"F c #6A5E5C",
"G c #6D605E",
"H c #665E60",
"J c #695F61",
"K c #6D6263",
"L c #716565",
"P c #716768",
"I c #756A6A",
"U c #786C6A",
"Y c #7D7171",
/* pixels */
"&577633>-3533352335522553222333>--=&---nf1>>>------=:*%&+0fy>#*c",
"+35569,-%*---23-22>2----===->>>6,-==-->KBq<>,-22>>->*%%*&lBv3&#4",
"+356691+ o+%%==--&&&%$@+oo@%&O$6++&@%@%KN0&&=&-=&&&@+X.&*gNm3&#+",
"+,35551$&---==,3>&<>->,:,>576::9=>7632>In5>,--,,----:*%&&jSb3&+O",
"+<3696<&::++O#$::;#+OO#+=4454:,6:<645=$Pn7##;:&;$OO+$>&&%cCx3&++",
"#<56994$%,<4446433344441>1664$:9$:584<4Ks5539333334<<>#&&dCM4%+X",
"#456001$&4811343533344<3>4441$:9&:43590Pz518533333345<#&&lJZ5&+X",
"#164901$;0uw09weuutww95061344&:9$<543wuUx59eyyut770uw3$&%jJH4%OO",
"#463991;;wcggjvMNNckgggfq>,34::9:>61>tcYn0gbvNNvjggjd3;&#jHJ3#+O",
"@365694>>399uuidy0qyeyyw93>31:<4:<4,>5eICyeet0uguuw09<:>#cZA4$OO",
"O36569413<314311>>4641233:>38<<9>14,>>zLb4493><1>431424<&jZZ4&+X",
"@3777959uugggut066699ww0057ew14919q07aAVu<09759wtdggdut4&lMC5*XX",
"+466955wddmMmvjduuwwedgvvvbMvu550fvNAGVi7ee0wupgvmMMcdd9;lxs4;XO",
"O356895<5990009994<>855w990w954849wNKSi<,61><99099009841:lxs4>XX",
"o354004%#%##&&&;::&::;%&&%&::&:4=;uSnt-&$::&:::$#;%##%+&;cxi4;XX",
"+546093;<580wuy0ww918<<<::244:>5:uASi=-,,19400wwutw094:*&lxi2&XX",
"+446773,weefkvmvkjgeew4:22455<,7iCAi2*><6wwpgkvvmvgdee8>%cVs3%XX",
"+546764-:::,1999989111>+>3455>,cAVi2>:&&:814899994>>::;>%vCz4&XX",
"@366703@+$=$&$;$$+##+X&O-2454<uDNi2;2>&+@O+#+$$$&&$&&&+&;mAb5&XX",
"@666672==45669946441-.&O><35wuBBg4<412%+++>9154589884<&:tFAb5&XO",
"@666794==390w0009909-O>#--40cAbi2408>-&&&%2w0000000051%0AGxa5&XX",
"$367974==590000009092#4$-:4lFnt>;304<:&>:&3996700w09839NAxy<3&XO",
"@660003:>6909w0666003$8$>2fFnt><<888>:=<:&500579w0990uSZxy<35:XX",
"@369964::600w976500w3;9&-uGx7&>6<508,==1<:60w75990wwuZZl7-355:.O",
"@666963:,70wq67769w94:w:qGn7&$49<3092&&51:6ww67770wfSAc5-3663=.+",
"@346996,<707767560w74>eeAny=$>164354>&$54<99066659iSAx9:27w94:XO",
"@36699417qewqttqwq977,vFVa3>9q96wyw06,>e5105qqwttiVAbu>,70945:XO",
"@,66776wppggcMvkkghpucFbi50cncw9ubvvgggkuwupgchcSKAzt5w959955:XO",
"@,477766974,,69q00qwbGCy&=535869984599yu99wtw0tgDHv9=3w449946>Oo",
"@447774=#==@@$=$@O+7Gnl=O+@$&#>9&#%$+@&;%&#+O+3nZz0%&&#>66551,.X",
"@65477,@@44,111,,-qNns2&>>-31$:4$:51:><1,<>>*9NAl7:<4>+&45961>XO",
"@466773%=79077w00kGna>:553365:>4=<9323500779fSZs7:3965$=69993<XX",
"@370944&>7777766cFSl<%5554206::4:<943557559fKSa5>46055&:7w6531O.",
"#570w43:>770074aAbi3%-5555396<<5>,w4365533iFCi2=460975::696651XO",
"#36w944>377w07xDby---35555499316>4w445573yFAa2-3700075>,996541XO",
"#369981<4770qMAVy-273557984w9149,4054976yAFa2-37000096,1796551XO",
"@364665<,907nGb7&%59559995499<49<475497fDGc>&-70777007<376654,.O",
"O4667959qufnGx740tgcdfuuyewtye990utweeuPAxqeiucccgpppyw766654,.O",
"+365697ykgDGnt,fBSFJKKKDNNvckku9fmcvmNAYVavJZBSSBMvchgg069665>.O",
"o25696577hKVa,1977yuduut70w09ww90w79wwyIVuyu050wq070079776555>XX",
"+345704-wZni=O$&&&:>:;;;$&$$$:19:;#$$$:KV5><:&&&$$#$$#%179663,Xo",
"+454707qZZi=@><,2<16841::=>:&$>4;$=:>;<KC5:<3><,<>:><;#>09955>.X",
"O64790gGVa>&-39453700994,33,-@:4@&>4345Kv5<94259932552%>69057>XX",
"+4450aGns5&:>6663>7097666633-#&5+%,,355Pb8<05<3963<3351<66665<XX",
"@,40hGMa0722148443097664432,>@$4@$3<357KS5<963481<135di566765,.O",
"@47aGNp,1ui761146460766652254@=6@:532,9KC7:594344470gy<360665,.O",
"@6aGnh,+@>qge64464306641>-,44==,$:64<>5KVr,4446459df6&+>666664X+",
"$aGxp,-;$==wkf0664264698,>166::4:,95>>5GV7>54499tjg3&&$>669466O$",
"eGbq,,,::4:&8ggu6>6737641<909119>196419Kb9,552wfjy>;:4;:7w0963+:",
"Gvy,196=:06,&:uhi>775699594691691594499KCw1925gg4::476::699766:&",
"x0-,964==676,==9pqqe7096944561994855889KC01etuu1;:3996&>6776qNpO",
"7=-666,$&66666:=,qhguuppuuut096980eeuufKb70hg5==<5577>$:669eCA9O",
"--67674;&696400,==qgefggggfuee09weyugghKxtyk3&=4w65663$>77uNGa-O",
"+466674==394>6664-=:::<::::==:19<:::::,Kb7::&-5993395,=>6uBGx,Oo",
"@466794==365>4966-<<<::::===&$,9&@===::Kx6::,25992>55,&,6hDn6#.O",
"@,66774>-563-4964,900066144,-&>9&=>1347Kz9:05>499,>541:,6vxa=$.o",
"@366764-:33324644<7067614531>::9=&33456Ks6=96>4663,3,,>,4xza-=oo",
"@557764:=3-334845390659644233::8:>3<349Pz5:773488333->:,,vbs--oO",
"@366766>:323431493506546<><34<>1:<11-27Kz6>46464,44-3,-,-vnz--+o",
"@46q946,=3334,11453965442*>4414,9814--5Lx4,46413,1334>-,-xBb,=+o",
"#66qw469ugcgjgcggdifdjvvvvvMvp65qgvnvvNIb6ppfgjvvmvcspq4-vBn,=oo",
"#,7776360uyt097w000yuuuiu0wt77425000ttfPM9qw0wwttuuupy6,-hBM2-+o",
",7qq02->:<>--&&-;-*>;>>>;*&*-=====-&&=<cd<>>--*--237y5=@@qfp,,-=",
"NvMbg=@@@@+..XXXXO++#%%++o+++@++@O+++O@1>:== X  @o&cZao    6qegp"
};
