/* XPM */
static char *wall_north[] = {
/* columns rows colors chars-per-pixel */
"64 64 99 2 ",
"   c #050505",
".  c #080708",
"X  c #0D0C0C",
"o  c #100F0F",
"O  c #11100F",
"+  c #110F11",
"@  c #151314",
"#  c #181617",
"$  c #191718",
"%  c #1C1A1B",
"&  c #201E1F",
"*  c #211F20",
"=  c #252323",
"-  c #292626",
";  c #2A2729",
":  c #2D2A2C",
">  c #312D2E",
",  c #35302F",
"<  c #322F31",
"1  c #353233",
"2  c #393536",
"3  c #3C3836",
"4  c #3B3738",
"5  c #3D3A3A",
"6  c #413D3D",
"7  c #44403F",
"8  c #50463D",
"9  c #433F40",
"0  c #464142",
"q  c #494545",
"w  c #4E4845",
"e  c #4C4749",
"r  c #4E494A",
"t  c #514A47",
"y  c #5A4D44",
"u  c #524D4E",
"i  c #544E50",
"p  c #565052",
"a  c #5A5455",
"s  c #5E5759",
"d  c #5F585A",
"f  c #60554E",
"g  c #675A4E",
"h  c #615B57",
"j  c #6D5F55",
"k  c #635B5D",
"l  c #695E59",
"z  c #67605B",
"x  c #6A615C",
"c  c #72665C",
"v  c #665E61",
"b  c #685F62",
"n  c #676062",
"m  c #6B6265",
"M  c #6E6669",
"N  c #6F696A",
"B  c #756A63",
"V  c #70676A",
"C  c #736A6D",
"Z  c #766D70",
"A  c #786F72",
"S  c #777073",
"D  c #7C7275",
"F  c #7F7578",
"G  c #7E7A7B",
"H  c #81777A",
"J  c #847A7D",
"K  c #877D80",
"L  c #897E82",
"P  c #878083",
"I  c #8C8185",
"U  c #8E8588",
"Y  c #91868A",
"T  c #948A8D",
"R  c #978D90",
"E  c #998E92",
"W  c #979395",
"Q  c #9C9195",
"!  c #9E9598",
"~  c #9F999B",
"^  c #A1969A",
"/  c #A39A9D",
"(  c #A69EA1",
")  c #A89EA2",
"_  c #A7A3A5",
"`  c #ABA3A5",
"'  c #AEA6A9",
"]  c #AFAAAB",
"[  c #B2ABAE",
"{  c #B6AFB1",
"}  c #B6B0B1",
"|  c #BAB3B5",
" . c #BEB8BA",
".. c #C0B7BA",
"X. c #C1BBBE",
"o. c #C6BFC2",
"O. c #C8BFC2",
"+. c #CBC3C6",
"@. c #D1C9CD",
/* pixels */
": 6 q 1 & % $ # # @ @ @ @ $ % * & = = = % o       # & # % = = = = % # - : ; = - * % % % % $ $ % * % % % & % # & $ O O $ 2 0 4 # ",
"> 6 6 %             X X o o X $ % % @ @ o .     X % @ @ X @ @ % % @ # # # % $ # @ @ @ X @ @ @ @ + + o X X . . X X .     - 7 4 % ",
"1 7 6 ; @ # % $ % % % % % % % % % % % @ + X @ X X @ X X @ O @ @ @ # @ $ % # @ % * * = % * * % % % % $ # # # @ + O + X X ; 7 5 % ",
"> 7 6 2 > 4 4 3 3 5 1 3 1 1 2 < : 1 2 : ; = = = = - % = - = - : , > : > 1 ; - 1 5 4 4 5 2 3 1 2 2 1 : 1 1 > : - - - & $ < 7 5 $ ",
": 6 5 1 > 6 q q q w e q 0 6 0 7 3 2 2 0 5 1 1 < , 5 1 : 1 1 5 q 6 5 5 6 5 : = > 9 9 0 q q e 9 6 4 6 7 3 3 5 5 4 1 1 : : < 5 5 $ ",
"> 6 3 5 6 7 6 u s s k k m N C M d a a m v v b v h n k v n k M A C M M M n d a a b k m m n C V b M n m n n n N N p 5 3 , 1 5 2 $ ",
"> 5 0 6 , 6 3 p m s a s h k n n v b M b b C M M N N N N M M C C M M C Z N M Z N C M V C M m M M N m n n k z k N s q 0 2 7 0 2 $ ",
": 6 q 3 > 1 0 i N k e 0 r u s s a k v k k b b v k m n v v m M m v k m M v v M n v k v b k h b a a p u p r 0 p n e 0 2 > r e 2 & ",
"1 5 0 q 4 4 < 9 i m s i i p k v k b M b b M V M C Z b b Z A D Z C C C S C C Z V V m V m m b M k k s s s p p v i q 3 1 0 d q 3 # ",
": 0 e C C b 6 > 0 r b C m m Z A C D H S Z F J J K K K K K K K K J J J P J L L J H D H D A Z Z C C C n M V k r e 2 2 p N S q 5 % ",
": 7 e F p i v 4 < 9 e M v i s k s v b v d b M b b M b b b M b b m n m V M M V n m v k b k p p p s p p v v e e 1 2 p i e Z q 4 * ",
": 5 q D p 5 p k 5 1 6 q v v k v k b b b b b M M b M M b b M M M m m M V m V C C C V m m m v h s v l v k e 0 1 1 p n 7 e Z 0 4 % ",
": 5 0 D s 0 0 k b 9 1 9 q M D M M S D C C Z S Z Z V C C C A A C C A Z H C D D D H S C D A N M m M D v 9 5 1 4 p v u q u N 6 2 % ",
"; 5 r F v u i p M C q 5 e u C A S K K S D D K D K D A K K K L K J J L L H L L H J J H J F D D S H v 0 5 : 2 s m d s p s S q 1 $ ",
": 5 r H V p a p v Z m t 6 e u C L L K D Z H K K K K K K L L L L I I L I L I L J L H H H D S G U M 0 9 1 4 d M s s s a v A e 2 $ ",
", 6 0 D i 6 9 5 q i k Z u 4 9 e b D V k s b C b b M M b C C Z C C C C C C A C C C M n k k k C k e 9 1 6 m C u q q q 6 e C 9 4 % ",
"1 0 q S s i p u s b k C H u 1 6 9 d F A Z F K F K K K K K K K K K K K L K K K K L K F F F D i q 9 3 9 C D m k k a s p k C 9 9 % ",
"2 0 9 D C m M n C D A A K J e : < 5 d K L T T R R L L R L L Q L R L R L T T T E R T Y R L a 9 5 6 e C U H D Z V C V b V C 6 5 % ",
"1 < 5 A s r p t p v k n b M C 9 = 1 9 v L F D D A F K K K K K K K K F K K F H D K D J L s 6 1 > 9 m A M b b k a p p i k C 6 : $ ",
": = 5 S s i p i k m l m V M Z F i < 2 9 k K K F K F K L K K K K H K K K K K K F K F G a 6 5 < 5 A D V V M b k a h a a k C 1 % $ ",
": ; 9 D m v b v V D D H H D H L L s < 4 9 v U T T T L L L T T T L T L E T Y Y T E L d 6 1 1 e D L H D H D H Z V C V M b Z 2 * $ ",
": < 9 H C b b v C H H D D H H L I U v 2 1 9 d U E L E E E T T T R T R E T T T E U a 6 1 < e J U J J H D D H H C C C b M A 9 : $ ",
"; 1 q H C b M v Z H D H D H H I L U Y v < 2 4 a L W T E Q Q W W Q E Q R T E W L i 4 1 > e K Y U Y L J J H H H H Z Z V M Z 9 < $ ",
"* 6 9 D H Z Z C J L J I L J L T Y W ! W m 5 < 5 a T ^ ( ) ' ] [ [ [ ' ) ( ( L r 6 1 > u U E R T R T Y I L I I J H D H Z Z 9 4 % ",
"; 5 9 D J D D D U U J U I Y Y E R ! ! ! T b 5 1 4 d R ) _ [ |  .o.{ o.' ' L a 4 1 < i K W R Y R R Y Y U P K P K J H D D C 6 1 % ",
": 5 9 Z p u i p k k k v b b m Z C C S C D L C 9 > 4 a L T Y T T E L L L K i 4 < < a K D A C Z Z A C N C n v v k k p u a C 4 1 $ ",
"< 9 9 D b v m V A Z A A H A H L K K U L L T E D 6 < 4 u L _ ' _ [ ` ) K 9 5 < 1 v R R U L K L K L J F D C n z d a a i k Z 0 6 $ ",
"1 9 e D Z C D J J J J L L L Y E R R W E E E Q Q S 6 < 4 e U ] { { ` K 9 5 ; : d ^ _ ^ ! E Y T U L D Z M d a p u u u u k C 0 6 $ ",
"< 0 r D F D J K I I L T T Y T E E Q ( Q Q Q ( ( ( S 2 < 0 v S G S S v 9 ; ; a Q ] _ ! W T J H s k s p p e q e 7 q q q a C q 6 % ",
"< e r F C m M C Z D Z H H H J L L L Y L L Y E ( ( ~ p < u v S D D S v 9 * r L H C m d r q 7 C 4 ; ; ; ; - ; - & = - = 9 C e q - ",
"< e u D Z A D D H J J I K L L T R Y T E Q ^ ) ) [ | L < 9 4 4 0 0 4 5 5 ; W O.[ ~ T U P P G / m C C C M n n v d d d p s M t 6 * ",
"1 9 t F A D H H J L L Y I Y T R R R E Q ( ) ) [ | +.~ < 0 9 9 4 4 9 9 9 : _ @.X. .| [ ' _ ( ! G Q Q Q R T U U L P K F A Z e 5 % ",
": 1 9 H A F F K K L L L L L T T E T E ^ ( ( ' ] | @.( < 9 9 6 ; < 4 0 9 : _ +.} ' ' ) ^ Q E E T T E T T L L L K F H A Z C 9 : $ ",
"; 2 9 Z C C F F F L L L L L L T T T T Q W ^ ' [ | +.W < 9 6 9 9 9 6 9 9 < _ o.{ [ _ ^ Q E T T T T L L L L K K K K F Z M C 9 ; * ",
"; 1 i D V b M M A D D K L H J L K L L L L T / _ ]  .L < e 9 9 i u 9 0 9 4 T | ] _ ^ T L L L L L L L K K K C A C V C b b A 9 < $ ",
": 5 9 F H D F K L L L L E L T R E E Q Q E ^ ( ) [ ~ p 1 i F Y T T U S e < d _ ] ' ( ! Q ! E Q E E E T T L L L K K K K Z D 9 1 * ",
"; 5 r Z C C H K L K K L L L T E E E Q E W ^ Q / ! d 4 < 1 9 a i r i 9 : < 4 v _ _ ^ Q ^ E T R T T T L T L L L K L K H H C r 4 % ",
"; 5 r m v v M C A A A D F F K L K L L L L Y R T s 2 < : 9 K ) { [ ( G 9 ; 1 4 v R R L L L K L K L K K K F D Z C Z b b b C 9 1 * ",
"; 9 e v p i p p v b v b M m M A C Z K A S G U v 4 : : d E ) ' [ { ' _ W p < < 4 b L F D S S S Z A Z C S b v v v v p p s V r 4 % ",
"* 9 9 M D S S A L L H L L L L T T E Q E R P a 5 : : v ( [ { ..O.o. .{ ' ~ d 1 < 9 n L E Q L T T T L L L K K K K H D D Z C 9 1 @ ",
": 9 e C F D A A K L K L L L L E T W Q ! L i < < < V Q ^ ) ) ` ' ' ' _ ( ^ Q b 1 4 5 a T ~ R T T E Q L L L L L H H H K A Z 9 4 + ",
": 6 e C V b b v Z H D F H J H L L L E K i 2 : < Z E E T E ! ! E Q Q E T R E E v < < 5 s L L L L Y L J H H H K Z Z Z C V C 9 1 X ",
"< 9 9 b b b b b C H F F F D H L L E K r 1 : < M R Y T E E T R T T T T E Q E L E b < < 4 i P L L L L H H H H D Z C V b b b 9 2 + ",
"< 9 9 b b b b b V D S F F F H K L K 9 4 < 4 C R T T T L Y T T T T T T T L R E L R M 1 < 2 r L L J J A H H H Z V V V V b V 9 4 $ ",
"< 5 9 Z v i a i d M b V V M V K F 9 < < 5 C L G K K K K K K L K L K K K K K K K L L m 4 < 4 r G H C C V b V v a k a s v b 9 4 % ",
"1 9 u b i e i 9 i k d v n v M M 5 1 < 5 F K S S Z D D D D F K F F D D K F F D D F D L Z 4 < 4 9 Z Z M m v v k u i i r i b e 4 % ",
"< 9 9 b M b V b C F D F G L n 5 : * 5 D L T R T Y T E T T T E E E T T E T R R R E T T T C 1 : 4 9 Z L J H H Z V V V b b v 9 4 % ",
": 9 9 d a a a p d n k n F M 5 4 : 4 D J S J K K K H K L K H L K K H K L L K K L L K H H K M 2 4 6 9 V H b b v k s k s p a 9 6 $ ",
"< 9 q v r 9 0 5 r p u M M 0 5 2 5 C S v a b C M M N C N C C A C Z C C A Z Z C C A N n v v C b 9 6 6 6 Z m a u e q 0 9 q b 0 6 $ ",
"< 6 5 b v p p i k m C v 0 0 5 q D L K A Z F K F F F F F K K K K K K K L K L L J J F D D A Z K Z 6 1 6 6 V C b a s a p p k 4 4 $ ",
": : 9 b k i a p v D v 9 q q a D F K K D D F K F F F F K K K L K K L L L J L L K K J F K F D D H A 9 , 2 q C D k k h p a k 6 = $ ",
": * 4 v i q q r M p 4 5 q a F A M A A Z Z Z A Z Z C C Z A A Z A Z Z D D Z D D D F A Z A Z C V b A H 9 ; 1 q k m i u 0 q k < % & ",
"< : q b i 5 q v a 1 1 5 a S m n v b M v b M C M M M m M M M C M m M M C M C C C A N M M M v k k v V V 6 1 6 9 k m e 5 q m 9 ; * ",
"< < 9 v 0 5 p i 2 4 4 u C a a s p v v k s v b v v b v v v v v v v v b m m b m v n v k k s p i i a i k V q 1 6 9 s p 4 6 b 6 > = ",
"< 5 9 v a k i 4 < 1 p Z C n C S C D F D Z D J F K L F D K K K H J J J L K K L F J A D D A Z C C Z M b V V 9 1 6 0 s M i k 9 1 ; ",
"< 9 9 i v i 2 < < i m a p a k n v b M b b M C N Z S M M A D D A C C A A Z Z A N C M M m m b m v k k k a h b e 2 6 6 s k u 9 4 % ",
"1 4 1 9 9 4 1 4 a m r q r p a s a k b k k b b v v M b v v M V M v v b N v v M v m k v v k k v s a p p p r w b u 3 4 0 a e 1 2 % ",
"4 6 6 4 < 1 6 a v i q 0 q r u p i p k a a k k k s v k k k k b m k d v m v k b v v s k k k p s i a i e r r q u b p 1 5 0 0 4 1 % ",
"< 1 9 9 4 < e e 4 5 3 1 4 5 6 q 6 9 e e e e u t e i u r u p p p i u u p i i i p p i u i i i r q q 0 5 6 5 5 6 4 a q 1 q e 6 : # ",
"< 1 4 6 : 6 a q e i e i u p p a i p a h k a k p k v s s v v k h k k k k v m v b m v v m M b v k d k v s s s p i p q 1 6 q 2 : % ",
"1 6 4 3 2 6 t p u k l m m l B A V C V V A A Z Z C m C B x C M M l b n V v m C v m M l k x C C n c D D C Z C D D D C u 7 q 4 2 # ",
"> 6 6 9 u e p t t s k b v f j M b b b b Z V V C k t k l f k v k s i t i r i s t i u t a k n n h g M x n M l C V C C M t q 4 4 # ",
"> 3 < e k k v v M C V M n C C k l Z A Z A A Z C y t v C C x C C D M v v k b C k v v b V C m m x C C x C S D H D A S l 8 6 1 2 # ",
"< 6 6 e p k s s k s u u p p i a k V Z h k a u q 3 0 i p a k C m D k i k k k v k v p i k b a p a m C C k n M m n n x k d u 4 3 = "
};
