/* XPM */
static char *wall_south[] = {
/* columns rows colors chars-per-pixel */
"64 64 63 1 ",
"  c #26211D",
". c #2C2723",
"X c #2F2A26",
"o c #332D2A",
"O c #382F2C",
"+ c #35302D",
"@ c #38302B",
"# c #3F3631",
"$ c #403732",
"% c #443A36",
"& c #493C35",
"* c #463D39",
"= c #483E39",
"- c #46403E",
"; c #4C433E",
": c #4F483A",
"> c #50443F",
", c #474241",
"< c #4D4643",
"1 c #4E4846",
"2 c #4E4949",
"3 c #514643",
"4 c #524946",
"5 c #5A4D46",
"6 c #524B4A",
"7 c #5B4E49",
"8 c #5D5345",
"9 c #57504F",
"0 c #5E514A",
"q c #5C5351",
"w c #5C5558",
"e c #62544D",
"r c #66584F",
"t c #6A5E4E",
"y c #715744",
"u c #635651",
"i c #665952",
"p c #6A5B53",
"a c #625A59",
"s c #6D5F58",
"d c #6C6154",
"f c #766956",
"g c #78675C",
"h c #776A5C",
"j c #7D6A58",
"k c #8E6C54",
"l c #826E59",
"z c #8A6E58",
"x c #906D55",
"c c #86715D",
"v c #8F7159",
"b c #907057",
"n c #92745C",
"m c #94785E",
"M c #967C60",
"N c #987F67",
"B c #967F68",
"V c #988067",
"C c #97806B",
"Z c #9B836B",
"A c #948171",
"S c #A0866B",
"D c #A58A6E",
/* pixels */
".5ppiairrpppprrpirpprprerru0754455=*64<#%**%*,----=*%*-#,#***##8",
"Xpgpaaarippppprrippprpiriippsi77ee4414221112<<;;1<1114<122242,;f",
"opp542244344613334444343335344==ep43<<22<3<12<;;;11<334111122<;j",
"opp3111121112<;;;<<1<<<;333335=*er434;;63;;161;;<62<;;<6212661;t",
"oir>44<=;<122<;;;<12;<<<=31<,4<*7i441<<14<<4111<1<1<;;33<3161;%:",
"oip446<<<;<2<;<<;1621<<==3<1<4=*7i541<1<<;<;31243<<;;>3<1;;11-%c",
"oir4422;;;12<;1211622,<;><<<,4=&0r431>43;;3<311134<<<33113142-=Z",
"oir3412<<<12122121412;;<34<<12,*ee3333>3<<;=>3<<;;41<;3411122-%A",
"Orr34121<<;46622213124<<<<<124==ee333;<13<;<<34<<;221<<,<<222;%A",
"oee4<162<;<<<66<;311221;<1,224=*ee4><;;411<<<331662624;<1<112-*A",
"Oei<12111<<<<441;112241<;<<<<<<*ep331<<<<<<344<<112221<<<<<<1-%C",
"O7i26241414133<1<3112311122<<4==et616<<1134<331<<1143<<211<<1;=V",
"o0i1661243;<113<;<<<3342222<=4==0r416<<61;<133;;<<333<22221;1;-M",
"oeu21<121<;,,<3>32433<3222<13>,*er6<11121;113>;<1;>346641<,<1-%V",
"o70<<<<,,=****%;-<<>3--<-<*-*%%*e7;;<,;,<;,,=%%*;*%;,<<;;*%%%#&C",
"o44%%*%$%%$%%%$%%%%%%%%%*%%%%$$&4;&%%%$%%%%%%$$$$%$%%$$%*#$$$#&B",
"o33>>>5345500553>55>355757777755ree00r08555e008>4575050rre7u070S",
"o5errrereeerre735rpeprereuiipie0iiiirpppeeaiiie3rprrprsssssssrpD",
"o;>343<3447644;%575444444144544546445554642136;-5e444466577996qS",
"o->>>1;1222431*%77=<4<42<,6<33>=34244;;<212;;2;%0e1<3622111<<37N",
"o,114<<22241<;**e7-<4311<2214>>;33334<;;112;;<%%ee1<142241<;<44N",
"o-1<3;<223<2<1=*77<34<122<<143>>3321<<;3114;;1-%ee11444213;;=37Z",
"o*<13<,42241<1,&77<34<1221243<;;<321<<<4112;-1;$3e44334214<,<16C",
"o*113<<11234<1;%77<<331122211;;><1<<1;33<12;;1-&5u6<342213<<246C",
"o*1111-1<;33<4;%074;=442221,<;<<42,<<<<3312;;2-&0u9;<114;3<3<<4S",
"o%><1;;;<;3>;4-*0q4=<31<2<1;;<11421<<=;;1<1;;2-=0w6<<;<:;3>3616Z",
"o=321<-<<;>><<;%774<<<<<111<4411422<;;;><1<;;<;-ea631<;1;>;4436S",
"o-4111<<;;:;<1-*773<3<<2<;<<<;14212;;<<<11;,22-%003<212;;;>>;>:V",
"o*1<<1<;;;;>11;%0733<<3<<;;;;;<1<121<<<<111121;%ee3422;;;;;<;:3m",
"+-1;<2<<;4<<11;*0714<><<21<;;:<11121<<<<<11,<2==rr42<2;;2<3<<<4l",
"+,111211<1<<;1;%00423>;<2<;;1;111111<<<;;12;;1**et6212224<<<<<4h",
"+<<<<11<;1<<11-%uu44<>><2<<1211;<<<<<1<;<221<2;=8r42<2;;<<;<132d",
"+-43<11<<;;;12*&0e3<4><3222464<<;;;;;2<<<12112-*er4;<<<,<;;;<<4j",
"+*1;<<221;>;,6,%0e4111<;416<22111<;;;;<2111<<2=*ei41<<2<<;;<<13m",
"o*1;;<12<;<<<<,*e0<3311;;41;<1<3<<;<;132<<<<12-*er53<<21;<<1124m",
"X-4;;<22<;1211;%7e333<4<<1<<;;;;;<1224<<1<<<<2-*er43<<2<;11<<<6m",
"X-<<;322226611;%0e44444;><111;>;;1664341331<46=%er433<222261<;6m",
"+-;<<<<4221414;*ee4343<>>;11;;<;<2422<>3314224=*ep733<<26142236m",
"+-;31<11;<1;11;%0e333>3>;<21;<211414<33>31124<-%rr533<2<<<;4426m",
"o-14421<<<3;<<;=0e333>>>;<1224664143;3>431322<-%ee4332<<<<;<244m",
"o-242241<1<;;1;%0e3111111<1144311<2<<3333<33<4-*er3<12111<;<<16m",
"X-1126221<;<;<=%004114<12<1;<,;3<111243<<;<<31*%er3<2222;;;;;45n",
"X-<114312;;<;>;%503,;<<111<;1<;;<1;122<<<<<;;<%=er4<2422;;;:;<4n",
".%<11<4422<<<;=%5041;;<<11<<1<331<;<<<413<223===8r6222622<;<<<6z",
".*1111<162<<<;;%0021<<<<2<;14<;><11<<24432221;==0e6222222<<1114v",
"X-1<111>441643;=70111<2222<1413><22<<244424313==ee2,22221<1<;33n",
"X*;=;<===,;;;;%%33-%*<,;=<<;,,=;-;;%*,;;;;**>=*=e6;*-;;;-%*%%;3b",
"o,=%%%%%%%%%%%%%;=%%%%%%%%%%%*%%%*%%%%%*%%%$%%==53*%#%%%%%%%$&>b",
"o6e7070038755755005770e00070774;37557777075>577eere5877777e0757x",
"o0peuuue0ereriueiureerrerrrpee4;7iieeerire0eeeerreueeeuirriiie5k",
"+0i624643;>>449677333434664411;*55<33<3434<334343<644644557754*k",
"+0e2<<2<;;;<36w774>><1;<<;;<<1=*75;<<;;<11<;;;;;;-<<<1<:33663=@y",
"+0a2;;11,<1<66674333<<<<;;:;<1;%55=41;;;;11<<;;;;;-<<<;;<1664=$=",
"+0i1;<1<;;;<;<1433;><22<;;;;<1;%55-441<<3<2<<,<;;-,21<;;;1664=$$",
"+8r2<411;<;;;;4111>>,12;;2<<12-*75<3<222442<;<2<---1,;;:3<141;%&",
"+602;:<11<>;;;<1;<3;<121322212;*0733<21111<;<222-;<1;;111<116;$&",
"o8w23>;12;;<<<4<,;>3;422244131;*e72;<1;;<<=;14424;,22<<<<<222;#o",
"X0u6>><111<<3<11;<<;;3424421<1=*0q4=21<<3<1<1<<1<=<122<<41241=#O",
"o7q23<<122<;;;11;<2<;;1<221<<1=*074<2<332<<33><1<<<<124341<<2;$O",
"o0921<;1421;<122<2223341221<<<=*57<31<144433331;1241<13><2612=$O",
"o0q222114111<<11222242<<<12<<;;=77333<226133326=16263333414<2-$O",
"o0q22222<122;<4<2222<2<<<<2<;<=*77422226412<<16<2222<433<4<<<-%O",
"o6r4221111;1<3<;<2<3334422<,<1=*77421222312<;41<<4<<123=<<;><;%X",
"+5e3<<<,11<<1;==*<=*<<1<3<**=**$7042<424;<1<464;1411<1133<;<3;$ "
};
