/* XPM */
static char *gun[] = {
/* columns rows colors chars-per-pixel */
"95 110 64 1 ",
"  c black",
". c #040400",
"X c #040404",
"o c #0C0404",
"O c #180C04",
"+ c #0C0C18",
"@ c #100C10",
"# c #181818",
"$ c #201008",
"% c #28140C",
"& c #301C10",
"* c #3C2014",
"= c #242020",
"- c #2C282C",
"; c #383434",
": c #442418",
"> c #4C2C18",
", c #54301C",
"< c #403C3C",
"1 c #603420",
"2 c #683C24",
"3 c #704028",
"4 c #78442C",
"5 c #4C4848",
"6 c #585050",
"7 c #60585C",
"8 c #6C6064",
"9 c #746C70",
"0 c #844C30",
"q c #8C5438",
"w c #905C3C",
"e c #986444",
"r c #A06C48",
"t c #A87450",
"y c #AC7C58",
"u c #807478",
"i c #B08460",
"p c #B89068",
"a c #BC9870",
"s c #C4A078",
"d c #887C80",
"f c #00A2E8",
"g c #94888C",
"h c #988C90",
"j c #A09498",
"k c #A89CA0",
"l c #ACA4A8",
"z c #B0ACAC",
"x c #B8B0B4",
"c c #CCAC80",
"v c #D4B08C",
"b c #D8B894",
"n c #C0B8B8",
"m c #DCC49C",
"M c #E4CCA8",
"N c #ECD8B0",
"B c #C8BCC0",
"V c #CCC4C8",
"C c #D4CCD0",
"Z c #D8D4D8",
"A c #E0D8DC",
"S c #E4E0E4",
"D c #ECE8EC",
"F c #F4F0F4",
/* pixels */
"fffffffffffffffffffffffffffffffffffffffffffffffffffffffffffffffffffffffffffffffffffffffffffffff",
"fffffffffffffffffffffffffffffffffffffffffffffffffffffffffffffffffffffffffffffffffffffffffffffff",
"fffffffffffffffffffffffffffffffffffffffffffffffffffffffffffffffffffffffffffffffffffffffffffffff",
"fffffffffffffffffffffffffffffffffffffffffffffffffffffffffffffffffffffffffffffffffffffffffffffff",
"fffffffffffffffffffffffffffffffffffffffffffffffffffffffffffffffffffffffffffffffffffffffffffffff",
"fffffffffffffffffffffffffffffffffffffffffffffffffffffffffffffffffffffffffffffffffffffffffffffff",
"fffffffffffffffffffffffffffffffffffffffffffffffffffffffffffffffffffffffffffffffffffffffffffffff",
"fffffffffffffffffffffffffffffffffffffffffffffffffffffffffffffffffffffffffffffffffffffffffffffff",
"fffffffffffffffffffffffffffffffffffffffffffffffffffffffffffffffffffffffffffffffffffffffffffffff",
"fffffffffffffffffffffffffffffffffffffffffffffffffffffffffffffffffffffffffffffffffffffffffffffff",
"fffffffffffffffffffffffffffffffffffffffffffffffffffffffffffffffffffffffffffffffffffffffffffffff",
"fffffffffffffffffffffffffffffffffffffffffffffffffffffffffffffffffffffffffffffffffffffffffffffff",
"fffffffffffffffffffffffffffffffffffffffffffffffffffffffffffffffffffffffffffffffffffffffffffffff",
"fffffffffffffffffffffffffffffffffffffffffffffffffffffffffffffffffffffffffffffffffffffffffffffff",
"fffffffffffffffffffffffffffffffffffffffffffffffffffffffffffffffffffffffffffffffffffffffffffffff",
"fffffffffffffffffffffffffffffffffffffffffffffffffffffffffffffffffffffffffffffffffffffffffffffff",
"fffffffffffffffffffffffffffffffffffffffffffffffffffffffffffffffffffffffffffffffffffffffffffffff",
"fffffffffffffffffffffffffffffffffffffffffffffffffffffffffffffffffffffffffffffffffffffffffffffff",
"fffffffffffffffffffffffffffffffffffffffffffffffffffffffffffffffffffffffffffffffffffffffffffffff",
"fffffffffffffffffffffffffffffffffffffffffffffffffffffffffffffffffffffffffffffffffffffffffffffff",
"fffffffffffffffffffffffffffffffffffffffffffffffffffffffffffffffffffffffffffffffffffffffffffffff",
"fffffffffffffffffffffffffffffffffffffffffffffffffffffffffffffffffffffffffffffffffffffffffffffff",
"fffffffffffffffffffffffffffffffffffffffffffffffffffffffffffffffffffffffffffffffffffffffffffffff",
"fffffffffffffffffffffffffffffffffffffffffffffffffffffffffffffffffffffffffffffffffffffffffffffff",
"fffffffffffffffffffffffffffffffffffffffffffffffffffffffffffffffffffffffffffffffffffffffffffffff",
"fffffffffffffffffffffffffffffffffffffffffffffffffffffffffffffffffffffffffffffffffffffffffffffff",
"fffffffffffffffffffffffffffffffffffffffffffffffffffffffffffffffffffffffffffffffffffffffffffffff",
"fffffffffffffffffffffffffffffffffffffffffffffffffffffffffffffffffffffffffffffffffffffffffffffff",
"fffffffffffffffffffffffffffffffffffffffffffffffffffffffffffffffffffffffffffffffffffffffffffffff",
"fffffffffffffffffffffffffffffffffffffffffffffffffffffffffffffffffffffffffffffffffffffffffffffff",
"fffffffffffffffffffffffff###=##@#@@@@Xfffffffffffffffffffffffffffffffffffffffffffffffffffffffff",
"ffffffffffffffffffffff5;-=-=#=###@#@@@@Xfffffffffffffffffffffffffffffffffffffffffffffffffffffff",
"ffffffffffffffffffff87<<--=====#=#@@@@@@@Xfffffffffffffffffffffffffffffffffffffffffffffffffffff",
"fffffffffffffffffff9k8<<;--=-=#=###@#@@@@@@Xfffffffffffffffffffffffffffffffffffffffffffffffffff",
"fffffffffffffffffffzxu5;<;--=-===#=#@#@#@@@@Xffffffffffffffffffffffffffffffffffffffffffffffffff",
"ffffffffffffffffffhZZk65;-;--=--==##=##@#@@@@@Xffffffffffffffffffffffffffffffffffffffffffffffff",
"ffffffffffffffffffkxZxd6<;;;-;-=--=-=#=#@#@#@@@@fffffffffffffffffffffffffffffffffffffffffffffff",
"ffffffffffffffffffudlZx85<;<;-;-;<5555;=#@#@@@@@@Xfffffffffffffffffffffffffffffffffffffffffffff",
"ffffffffffffffffff67ujZx85<;<;<55-@@@-55=###@#@@@@@Xfffffffffffffffffffffffffffffffffffffffffff",
"ffffffffffffffffff5569gZz85<<56-@@##==;<7=#@#@#@@@@@Xffffffffffffffffffffffffffffffffffffffffff",
"ffffffffffffffffff5<568jZzu778#@#-<;;-=;;u;=###@#@#@@@Xffffffffffffffffffffffffffffffffffffffff",
"ffffffffffffffffff<<<<69kZlzg-#-755<;;-=;<d5=#@#@#@@@@@@fffffffffffffffffffffffffffffffffffffff",
"fffffffffffffffff=5<;556ukFn<=;dk965<<;;--==#=###@##@@@@@Xfffffffffffffffffffffffffffffffffffff",
"ffffffffffffffff;uu;=;<57dCu==9uug8<<;---=-===#=###@#@@@@@@Xfffffffffffffffffffffffffffffffffff",
"ffffffffffffffff<577#-5569h5=<8997<<;;-;--=--==#==##@#@#@@@@@ffffffffffffffffffffffffffffffffff",
"ffffffffffffffff<<57;#-<58d-=678h76<;<;----=-=-==#=##@#@@#@@@@Xffffffffffffffffffffffffffffffff",
"ffffffffffffffff;5<56##-<7u--<6nj965<;;;-;--=-=-=-=============#Xffffffffffffffffffffffffffffff",
"ffffffffffffffff=<<<<#@-569-;;8nVh865<<;<-;<55555<5<;--==##@@@@XXXfffffffffffffffffffffffffffff",
"ffffffffffffffff#<<5;##<5<8;-;u9jBg765<<565<;=###@@@@@@@@@@#@@@@@@@Xfffffffffffffffffffffffffff",
"fffffffffffffffff-<<-X#5<575<-g67gxd7567<=###------=-===#=#=###@#@@@Xffffffffffffffffffffffffff",
"ffffffffffffffff-#;<=X#<<<58569577dlg99<=-;;<;;;-;--=-=====##=##@#@@@Xfffffffffffffffffffffffff",
"ffffffffffffffff;5=;@X#<<5<5u97<667dld;=<5<5<<;<;------=-====#=#=##@@@Xffffffffffffffffffffffff",
"ffffffffffffffff-;5=--<;<<<55d5-5568h6-<665<5<<;;<-;----=-==#=######@@@Xfffffffffffffffffffffff",
"ffffffffffffffff=;;6=#;<;<5<<55;6;669-;87765<5<;<;;-;-;--==-===#=####@@Xfffffffffffffffffffffff",
"fffffffffffffffff=;;##-;;;<55<5-5;767=6988875<5<<<;<;;-;---=-=-=#=#=##@@fffffffffffffffffffffff",
"fffffffffffffffff#--@#;;;<;<<55;5;7;6=9u999u865<5<<;;;;-;-;---=-=#=##@#@Xffffffffffffffffffffff",
"ffffffffffffffffff=#@;-;-;;;<<6-6<7-5#9ud9udu87655<5<;<;;;-;----==#####@@ffffffffffffffffffffff",
"ffffffffffffffffff##--;-;-;<<<6;5;6-<=9dgd8ugdu8755<5<;<;<;;-;-==#==##@#Xffffffffffffffffffffff",
"fffffffffffffffffff#=--;-;;<;56;6;5;5#8gkhd9dhkju865<5<5555555<<-==#=##@Xffffffffffffffffffffff",
"ffffffffffffffffffff#=---;-;<;6;6-6;<#7gzxkgdglBnjd98765<<;;----;;==#=#@@ffffffffffffffffffffff",
"fffffffffffffffffffff#=-;-;;;<7;6;6-<#6gzVZldhjzku5-=============-;==##@@ffffffffffffffffffffff",
"fffffffffffffffffffff;#=--;-;;7;7-8;<@5ulVDSljjd6-=====-=--;;;;;-==;==#@@ffffffffffffffffffffff",
"ffffffffffffffffffff<5;#=;-;-<6=6-6-;#<7dxADBld;;=-;<<<<<<;;----<-==-##@@ffffffffffffffffffffff",
"fffffffffffffffffff5678=#=--;;<-7;6=<@<68dxBxh8-=-<-=========#==-;#=-=#@Xffffffffffffffffffffff",
"fffffffffffffffffffd8d;+=#=--;;;6-7=;@5578uhgd;=-5=======#=#=====;=#-##@@ffffffffffffffffffffff",
"fffffffffffffffffff-j;@##6#=;--;<-7=<@<<5789ug-=;-===#=======#===;==-=#@Xffffffffffffffffffffff",
"fffffffffffffffffff--@#=8<-#=-;;;;6=;@<555689d#=<#=====#=======#=;#=-=#@Xffffffffffffffffffffff",
"fffffffffffffffffff;-@=8567-#=--;-5-<@;5<5568d=#<===#====#===#==#-=#-##@Xffffffffffffffffffffff",
"fffffffffffffffffff-;@#u8d;XX#=;-;<-;@;<5<5568#=<#====#===#=#=#=#;##-=#@Xffffffffffffffffffffff",
"fffffffffffffffffff--@-5j5XX@X#=--;;;@-<<5<556#=<=#==#=#=#====###-=#-##@Xffffffffffffffffffffff",
"fffffffffffffffffff-;#<;;-X##@X#=---;@;<;<<<56=#<#=#===##=#=##=##-##-=#@Xffffffffffffffffffffff",
"fffffffffffffffffff--#-;-@#-==@X#=-;-@-;<;<5<5#=;=#==##=##=#####=-=#-##@Xffffffffffffffffffffff",
"fffffffffffffffffff-;@=;-#-6;-#@X#=-;@-<;<;<55=#;#==##=#####=####=##-=#@Xffffffffffffffffffffff",
"fffffffffffffffffff@;##-;@;58;=@@X#=-@=;;;<5<5##;=##=###=###=#==#-#@-##@Xffffffffffffffffffffff",
"ffffffffffffffffffff#-@;-#=-<;-@##X#=@-;-;;<<5#=;##=##=###=####=#-##-=#@Xffffffffffffffffffffff",
"ffffffffffffffffffffff@-;#@=--=####X#@--;;<;<<##-###=####=####=##=@#-=#@Xffffffffffffffffffffff",
"fffffffffffffffffffffff--##X@=@@#@#=X=;---;<;5@#-=#####=####=####=#@-##@fffffffffffffffffffffff",
"fffffffffffffffffffffff=-=##XX####=##@@;--<;;5##-########=#####@#-#@-=#@fffffffffffffffffffffff",
"ffffffffffffffffffffffff=;###@#@#@##=##@5-;-;5#@=#=#=#######=#@##=@#-##@fffffffffffffffffffffff",
"fffffffffffffffffffffffff#<==#@#@##@#==#@<;-;<##=######@##@####@#=@@-=#ffffffffffffffffffffffff",
"fffffffffffffffffffffffffffrir0@@@@#@##=#@-;;<@#=@#@#####@###@##@=@@#-@ffffffffffffffffffffffff",
"ffffffffffffffffffffffffftscayt010rtiitw0,*=-;#@=###@#@#@#@@#@@@@#$::$fffffffffffffffffffffffff",
"ffffffffffffffffffffffffeabcsiyrypvMMMmmvspe2&@@=@#@#@#@@@@@@@@$>240wq03fffffffffffffffffffffff",
"fffffffffffffffffffffffepbbcapacbmbbbvvbbbmMvpq>##@#@#@@@@@@O:,30wrtipiyr3fffffffffffffffffffff",
"ffffffffffffffffffffffftsbvscbmmbbvsaassscvbMMcpw,%@@@@@o&:130wrtipascvvcseffffffffffffffffffff",
"fffffffffffffffffffffffrpvbmmMMmmbsiyyipasscvbMbsirw0322340wertipscvbbmMmbcqfffffffffffffffffff",
"fffffffffffffffffffffffpbMNMMMMmmvaitrrtypassccvvcpyrewqwertyiasvbmMmMMMMMbsfffffffffffffffffff",
"fffffffffffffffffffffbMMNNMNMMMMmcayewqwetypaaascvcaitrrrtyipsvmmMMmMmMmMNmbfffffffffffffffffff",
"ffffffffffffffffffffmMMNMNNNMMmMmsatq4230qetipaassccspiiipasscbbMmMMMMNMNMMmiffffffffffffffffff",
"ffffffffffffffffffamMMNMNMNMMmMmmsprq2,,120etypaasssccsaassccccbmMMmMNMNMNNMsffffffffffffffffff",
"fffffffffffffffffsmMMMMNMNMmMMmmbcpe02,,>,,2wtyppasssccsssccccvbbmmMMMNMNNMNcffffffffffffffffff",
"ffffffffffffffffcmMmMNMMmMmMmmmbbcieq2,,>>>>2qrtippasssccsssccvvbmMmMNNNNNNMvyfffffffffffffffff",
"ffffffffffffffffbmmMmMMmbbmmbbbbbsirw41,>>>>>10eryippassscsccvvvbmMMMMNNNNNNmsfffffffffffffffff",
"fffffffffffffffsmmMmMmmbvbmmmmmbvspte03,>>>>>,20wtyippassscccvbbbmmMMNNNMNNMMvfffffffffffffffff",
"fffffffffffffffsbbmmmbvcssvbbbbbbcayrw42,>>>>>,,4wtyyppassccvbbmmmMmMMNMNNNNMmpffffffffffffffff",
"fffffffffffffffpbmbbvcsapascvmbbvcsiteq42,>>>>>,,2qrtyipasscvvbmmmmMMNMNMNNMNMsffffffffffffffff",
"ffffffffffffffftbbmcspiytreepvbvmvcayteq42,>>>:>>,20eryyppassccbmmmMMMNMNMNNMMvffffffffffffffff",
"fffffffffffffffrsbbspytrewq0rsmbvbcsiyrwq42,,>>:>>,14wrtyppassccbmbmMMMMMNMMNMmafffffffffffffff",
"fffffffffffffffrsbbptrew042,4imbbbvcpytew031,>:>:>>,,2qetypsassccbbmmMmMmMNMMMMcfffffffffffffff",
"ffffffffffffffframvprq2322,>*evmbvbvaitteq42,>>:::>>,,20etypsssssvbbmmMmMMMMmMMbyffffffffffffff",
"fffffffffffffffrsMvir01:*&***4ammbbvspytrw02,,>>:::>>,13qetypssascvbbbmMMMmMMMmmpffffffffffffff",
"fffffffffffffffrcmcie4,*&%%  *tbbbvbcaiyteq4,,,:>:::>>,14qetypasasscvvvbmmMmMmMmcffffffffffffff",
"fffffffffffffffpbMsyw3>*&O    qsbbbbvspytew42,>>:::::>>,13qetyppapaaassccvmMmMmmvpfffffffffffff",
"fffffffffffffffsMvatq2:**O.   >pbvbvbcaptrw02,,>::>:>:>,,24qetyppppaaaaaaacmmmmmmcfffffffffffff",
"fffffffffffffffsmspr01>**%$    ebbvbvcspyrw03,,,:::::>>,,130wetippapaapappacmmmmmbiffffffffffff",
"fffffffffffffffvspyw4,>:**Oo   qavbvvcsapte03,,>::::>:>,,124qwrypasssasaaaascbmmmmsffffffffffff",
"ffffffffffffffffite02,,>,>:2,4e4tvvvcvcaate02,>::>:::>>,12240qeryacccccccsssscbmbmvpfffffffffff",
"fffffffffffffffffw04f0pvt32tptr4eccvvccaptw42,>::::>>>,,22440qwetyacvbvvvspasscbmbbcpffffffffff",
"ffffffffffffffffffffffrbctq4ppptqpvvcvcsatw41>::::>>>,,11234qqwerttpsccccssssccvbbmbcpfffffffff",
"fffffffffffffffffffffffsmbprtscsqtccvccsprw2,,,,>::>,,,12120qwwerttypsvvcccvbvcvvbbbbsaffffffff"
};
